<svg xmlns="http://www.w3.org/2000/svg" xmlns:xlink="http://www.w3.org/1999/xlink" width="500" zoomAndPan="magnify" viewBox="0 0 375 374.999991" height="500" preserveAspectRatio="xMidYMid meet" version="1.0"><defs><g/></defs><g fill="#ffffff" fill-opacity="1"><g transform="translate(91.323522, 203.249987)"><g><path d="M 11.59375 -20.046875 C 11.59375 -17.878906 11.5 -15.710938 11.3125 -13.546875 C 11.125 -11.378906 11.03125 -9.195312 11.03125 -7 C 11.03125 -5.957031 11.125 -4.921875 11.3125 -3.890625 C 11.5 -2.867188 11.59375 -1.851562 11.59375 -0.84375 C 11.59375 -0.164062 11.382812 0.515625 10.96875 1.203125 C 10.5625 1.890625 10.054688 2.476562 9.453125 2.96875 C 8.859375 3.457031 8.265625 3.703125 7.671875 3.703125 C 7.109375 3.703125 6.507812 3.457031 5.875 2.96875 C 5.238281 2.476562 4.675781 1.867188 4.1875 1.140625 C 3.707031 0.421875 3.410156 -0.332031 3.296875 -1.125 C 2.960938 -4.144531 2.796875 -7.164062 2.796875 -10.1875 C 2.796875 -14 2.90625 -17.921875 3.125 -21.953125 C 3.351562 -25.984375 3.597656 -29.921875 3.859375 -33.765625 C 3.972656 -35.710938 4.300781 -37.078125 4.84375 -37.859375 C 5.382812 -38.640625 6.289062 -39.03125 7.5625 -39.03125 C 8.9375 -39.03125 10.050781 -38.546875 10.90625 -37.578125 C 11.769531 -36.609375 12.203125 -35.335938 12.203125 -33.765625 C 12.203125 -31.710938 12.085938 -29.695312 11.859375 -27.71875 C 11.640625 -25.738281 11.53125 -23.757812 11.53125 -21.78125 C 11.53125 -21.519531 11.53125 -21.238281 11.53125 -20.9375 C 11.53125 -20.644531 11.550781 -20.347656 11.59375 -20.046875 Z M 11.59375 -20.046875 "/></g></g></g><g fill="#ffffff" fill-opacity="1"><g transform="translate(105.209587, 203.249987)"><g><path d="M 6.71875 -11.25 C 7.65625 -11.175781 8.484375 -10.796875 9.203125 -10.109375 C 9.929688 -9.421875 10.507812 -8.585938 10.9375 -7.609375 C 11.375 -6.640625 11.59375 -5.671875 11.59375 -4.703125 C 11.59375 -3.765625 11.207031 -2.828125 10.4375 -1.890625 C 9.675781 -0.960938 8.753906 -0.5 7.671875 -0.5 C 6.816406 -0.5 6.015625 -0.84375 5.265625 -1.53125 C 4.515625 -2.226562 3.914062 -3.125 3.46875 -4.21875 C 3.019531 -5.320312 2.796875 -6.453125 2.796875 -7.609375 C 2.796875 -9.066406 3.175781 -10.035156 3.9375 -10.515625 C 4.707031 -11.003906 5.632812 -11.25 6.71875 -11.25 Z M 11.03125 -26.59375 C 10.882812 -25.4375 10.457031 -24.4375 9.75 -23.59375 C 9.039062 -22.757812 8.21875 -22.34375 7.28125 -22.34375 C 6.082031 -22.34375 5.046875 -22.753906 4.171875 -23.578125 C 3.296875 -24.398438 2.859375 -25.3125 2.859375 -26.3125 C 2.859375 -27.394531 3.25 -28.359375 4.03125 -29.203125 C 4.8125 -30.046875 5.765625 -30.46875 6.890625 -30.46875 C 7.597656 -30.46875 8.257812 -30.257812 8.875 -29.84375 C 9.488281 -29.4375 10 -28.929688 10.40625 -28.328125 C 10.820312 -27.734375 11.03125 -27.15625 11.03125 -26.59375 Z M 11.03125 -26.59375 "/></g></g></g><g fill="#ffffff" fill-opacity="1"><g transform="translate(118.479731, 203.249987)"><g><path d="M 24.703125 -32.640625 C 24.703125 -31.265625 24.34375 -30.097656 23.625 -29.140625 C 22.914062 -28.191406 21.890625 -27.566406 20.546875 -27.265625 C 19.203125 -27.078125 18.378906 -26.628906 18.078125 -25.921875 C 17.785156 -25.210938 17.640625 -24.375 17.640625 -23.40625 C 17.640625 -22.207031 17.535156 -21.019531 17.328125 -19.84375 C 17.128906 -18.675781 17.03125 -17.71875 17.03125 -16.96875 C 17.03125 -16.332031 17.269531 -15.6875 17.75 -15.03125 C 18.238281 -14.382812 18.710938 -13.796875 19.171875 -13.265625 C 19.640625 -12.742188 19.875 -12.296875 19.875 -11.921875 C 19.875 -11.285156 19.257812 -10.691406 18.03125 -10.140625 C 16.988281 -9.648438 16.289062 -9.015625 15.9375 -8.234375 C 15.582031 -7.453125 15.363281 -6.570312 15.28125 -5.59375 C 15.207031 -3.882812 15.078125 -2.128906 14.890625 -0.328125 C 14.703125 1.460938 14.609375 3.269531 14.609375 5.09375 C 14.609375 5.957031 14.441406 6.875 14.109375 7.84375 C 13.773438 8.8125 13.304688 9.640625 12.703125 10.328125 C 12.109375 11.023438 11.382812 11.375 10.53125 11.375 C 9.664062 11.375 8.832031 11.148438 8.03125 10.703125 C 7.226562 10.253906 6.828125 9.597656 6.828125 8.734375 C 6.828125 8.359375 6.882812 7.984375 7 7.609375 C 7.519531 5.972656 7.789062 4.265625 7.8125 2.484375 C 7.832031 0.710938 7.953125 -1.007812 8.171875 -2.6875 C 8.210938 -2.875 8.238281 -3.066406 8.25 -3.265625 C 8.269531 -3.472656 8.28125 -3.671875 8.28125 -3.859375 C 8.28125 -4.722656 8.066406 -5.347656 7.640625 -5.734375 C 7.210938 -6.128906 6.457031 -6.328125 5.375 -6.328125 C 4.4375 -6.398438 3.585938 -6.78125 2.828125 -7.46875 C 2.066406 -8.164062 1.6875 -8.847656 1.6875 -9.515625 C 1.6875 -9.816406 1.84375 -10.21875 2.15625 -10.71875 C 2.46875 -11.226562 2.890625 -11.554688 3.421875 -11.703125 C 4.984375 -12.222656 6.203125 -12.929688 7.078125 -13.828125 C 7.960938 -14.722656 8.609375 -15.738281 9.015625 -16.875 C 9.421875 -18.019531 9.691406 -19.234375 9.828125 -20.515625 C 9.960938 -21.804688 10.082031 -23.109375 10.1875 -24.421875 C 10.375 -26.691406 10.550781 -28.960938 10.71875 -31.234375 C 10.882812 -33.515625 11.082031 -35.796875 11.3125 -38.078125 C 11.644531 -41.585938 13.117188 -43.34375 15.734375 -43.34375 C 17.453125 -43.34375 18.992188 -42.875 20.359375 -41.9375 C 21.722656 -41.007812 22.796875 -39.816406 23.578125 -38.359375 C 24.359375 -36.898438 24.75 -35.367188 24.75 -33.765625 C 24.75 -33.578125 24.75 -33.390625 24.75 -33.203125 C 24.75 -33.015625 24.734375 -32.828125 24.703125 -32.640625 Z M 24.703125 -32.640625 "/></g></g></g><g fill="#ffffff" fill-opacity="1"><g transform="translate(140.428663, 203.249987)"><g><path d="M 24.359375 -8.515625 C 24.660156 -8.023438 25.070312 -7.695312 25.59375 -7.53125 C 26.113281 -7.363281 26.691406 -7.257812 27.328125 -7.21875 C 27.960938 -7.1875 28.566406 -7.113281 29.140625 -7 C 29.722656 -6.882812 30.203125 -6.628906 30.578125 -6.234375 C 30.953125 -5.847656 31.140625 -5.226562 31.140625 -4.375 C 31.140625 -3.25 30.8125 -2.332031 30.15625 -1.625 C 29.5 -0.914062 28.675781 -0.382812 27.6875 -0.03125 C 26.695312 0.320312 25.648438 0.5625 24.546875 0.6875 C 23.453125 0.820312 22.457031 0.890625 21.5625 0.890625 C 20.175781 0.890625 18.828125 0.644531 17.515625 0.15625 C 16.210938 -0.320312 14.984375 -1.160156 13.828125 -2.359375 C 13.117188 -3.097656 12.425781 -3.644531 11.75 -4 C 11.082031 -4.351562 10.359375 -4.53125 9.578125 -4.53125 C 9.015625 -4.53125 8.394531 -4.414062 7.71875 -4.1875 C 7.050781 -3.96875 6.398438 -3.859375 5.765625 -3.859375 C 4.941406 -3.859375 4.082031 -4.117188 3.1875 -4.640625 C 2.289062 -5.171875 1.535156 -5.84375 0.921875 -6.65625 C 0.304688 -7.476562 0 -8.320312 0 -9.1875 C 0 -10.414062 0.4375 -11.476562 1.3125 -12.375 C 2.1875 -13.269531 3.164062 -13.71875 4.25 -13.71875 C 4.476562 -13.71875 4.710938 -13.707031 4.953125 -13.6875 C 5.191406 -13.664062 5.40625 -13.65625 5.59375 -13.65625 C 6.863281 -13.65625 7.851562 -14 8.5625 -14.6875 C 9.269531 -15.382812 9.984375 -16.273438 10.703125 -17.359375 C 11.328125 -18.585938 12.226562 -19.648438 13.40625 -20.546875 C 14.582031 -21.441406 15.898438 -22.132812 17.359375 -22.625 C 18.816406 -23.113281 20.234375 -23.359375 21.609375 -23.359375 C 23.253906 -23.359375 24.539062 -22.914062 25.46875 -22.03125 C 26.40625 -21.15625 27.070312 -20.070312 27.46875 -18.78125 C 27.863281 -17.5 28.0625 -16.257812 28.0625 -15.0625 C 28.0625 -14.425781 27.957031 -13.789062 27.75 -13.15625 C 27.539062 -12.519531 27.15625 -11.882812 26.59375 -11.25 C 26.226562 -10.84375 25.765625 -10.488281 25.203125 -10.1875 C 24.640625 -9.894531 24.359375 -9.335938 24.359375 -8.515625 Z M 24.359375 -8.515625 "/></g></g></g><g fill="#ffffff" fill-opacity="1"><g transform="translate(199.825669, 203.572854)"><g><path d="M 15.796875 -2.703125 C 15.234375 -1.847656 14.421875 -1.109375 13.359375 -0.484375 C 12.296875 0.128906 10.96875 0.4375 9.375 0.4375 C 7.570312 0.4375 6.144531 -0.00390625 5.09375 -0.890625 C 4.050781 -1.773438 3.53125 -3.144531 3.53125 -5 C 3.53125 -5.914062 3.535156 -6.703125 3.546875 -7.359375 C 3.566406 -8.023438 3.578125 -8.785156 3.578125 -9.640625 L 3.578125 -18.40625 L 0.625 -18.40625 L 0.625 -20.828125 L 4.109375 -21.28125 L 5.359375 -27.421875 L 9.59375 -27.421875 L 9.59375 -21.234375 L 14.640625 -21.234375 L 14.640625 -18.40625 L 9.59375 -18.40625 L 9.59375 -6.234375 C 9.59375 -5.140625 9.804688 -4.347656 10.234375 -3.859375 C 10.660156 -3.378906 11.21875 -3.140625 11.90625 -3.140625 C 12.195312 -3.140625 12.570312 -3.203125 13.03125 -3.328125 C 13.488281 -3.460938 13.984375 -3.753906 14.515625 -4.203125 Z M 15.796875 -2.703125 "/></g></g></g><g fill="#ffffff" fill-opacity="1"><g transform="translate(215.570335, 203.572854)"><g><path d="M 7.34375 -25.703125 C 6.34375 -25.703125 5.476562 -26.03125 4.75 -26.6875 C 4.03125 -27.351562 3.671875 -28.203125 3.671875 -29.234375 C 3.671875 -30.265625 4.03125 -31.101562 4.75 -31.75 C 5.476562 -32.40625 6.34375 -32.734375 7.34375 -32.734375 C 8.375 -32.734375 9.242188 -32.40625 9.953125 -31.75 C 10.660156 -31.101562 11.015625 -30.265625 11.015625 -29.234375 C 11.015625 -28.203125 10.660156 -27.351562 9.953125 -26.6875 C 9.242188 -26.03125 8.375 -25.703125 7.34375 -25.703125 Z M 13 -1.953125 L 13 0 L 1.6875 0 L 1.6875 -1.953125 L 4.375 -2.484375 C 4.40625 -3.597656 4.421875 -4.773438 4.421875 -6.015625 C 4.421875 -7.253906 4.421875 -8.347656 4.421875 -9.296875 L 4.421875 -11.5 C 4.421875 -12.707031 4.40625 -13.71875 4.375 -14.53125 C 4.34375 -15.34375 4.316406 -16.191406 4.296875 -17.078125 L 1.328125 -17.46875 L 1.328125 -19.15625 L 9.90625 -22.03125 L 10.578125 -21.59375 L 10.4375 -15.265625 L 10.4375 -9.296875 C 10.4375 -8.347656 10.4375 -7.242188 10.4375 -5.984375 C 10.4375 -4.734375 10.453125 -3.566406 10.484375 -2.484375 Z M 13 -1.953125 "/></g></g></g><g fill="#ffffff" fill-opacity="1"><g transform="translate(229.236353, 203.572854)"><g><path d="M 39.59375 -1.953125 L 39.59375 0 L 28.4375 0 L 28.4375 -1.953125 L 31.140625 -2.515625 C 31.171875 -3.578125 31.1875 -4.726562 31.1875 -5.96875 C 31.1875 -7.207031 31.1875 -8.316406 31.1875 -9.296875 L 31.1875 -13.53125 C 31.1875 -16.78125 30.285156 -18.40625 28.484375 -18.40625 C 27.722656 -18.40625 26.910156 -18.148438 26.046875 -17.640625 C 25.191406 -17.140625 24.410156 -16.566406 23.703125 -15.921875 C 23.734375 -15.660156 23.753906 -15.390625 23.765625 -15.109375 C 23.785156 -14.828125 23.796875 -14.539062 23.796875 -14.25 L 23.796875 -9.296875 C 23.796875 -8.316406 23.796875 -7.207031 23.796875 -5.96875 C 23.796875 -4.726562 23.8125 -3.566406 23.84375 -2.484375 L 26.359375 -1.953125 L 26.359375 0 L 15.21875 0 L 15.21875 -1.953125 L 17.921875 -2.515625 C 17.941406 -3.578125 17.953125 -4.726562 17.953125 -5.96875 C 17.953125 -7.207031 17.953125 -8.316406 17.953125 -9.296875 L 17.953125 -13.53125 C 17.953125 -16.78125 17.039062 -18.40625 15.21875 -18.40625 C 14.445312 -18.40625 13.640625 -18.148438 12.796875 -17.640625 C 11.960938 -17.140625 11.175781 -16.550781 10.4375 -15.875 L 10.4375 -9.296875 C 10.4375 -8.347656 10.4375 -7.242188 10.4375 -5.984375 C 10.4375 -4.734375 10.453125 -3.550781 10.484375 -2.4375 L 12.921875 -1.953125 L 12.921875 0 L 1.765625 0 L 1.765625 -1.953125 L 4.46875 -2.515625 C 4.5 -3.609375 4.515625 -4.773438 4.515625 -6.015625 C 4.515625 -7.253906 4.515625 -8.347656 4.515625 -9.296875 L 4.515625 -11.859375 C 4.515625 -12.472656 4.515625 -13 4.515625 -13.4375 C 4.515625 -13.882812 4.503906 -14.304688 4.484375 -14.703125 C 4.472656 -15.109375 4.457031 -15.492188 4.4375 -15.859375 C 4.425781 -16.222656 4.40625 -16.628906 4.375 -17.078125 L 1.328125 -17.46875 L 1.328125 -19.15625 L 9.328125 -22.03125 L 10 -21.59375 L 10.3125 -18.09375 C 11.425781 -19.476562 12.5 -20.476562 13.53125 -21.09375 C 14.5625 -21.71875 15.816406 -22.03125 17.296875 -22.03125 C 20.503906 -22.03125 22.523438 -20.671875 23.359375 -17.953125 C 23.921875 -18.660156 24.472656 -19.269531 25.015625 -19.78125 C 25.554688 -20.300781 26.113281 -20.734375 26.6875 -21.078125 C 27.269531 -21.421875 27.890625 -21.664062 28.546875 -21.8125 C 29.210938 -21.957031 29.957031 -22.03125 30.78125 -22.03125 C 32.90625 -22.03125 34.476562 -21.398438 35.5 -20.140625 C 36.519531 -18.890625 37.03125 -16.925781 37.03125 -14.25 L 37.03125 -9.296875 C 37.03125 -8.316406 37.03125 -7.207031 37.03125 -5.96875 C 37.03125 -4.726562 37.039062 -3.566406 37.0625 -2.484375 Z M 39.59375 -1.953125 "/></g></g></g><g fill="#ffffff" fill-opacity="1"><g transform="translate(269.792129, 203.572854)"><g><path d="M 13.3125 -12.609375 C 14.375 -12.609375 15.101562 -12.828125 15.5 -13.265625 C 15.894531 -13.710938 16.09375 -14.40625 16.09375 -15.34375 C 16.09375 -16.757812 15.796875 -17.859375 15.203125 -18.640625 C 14.617188 -19.421875 13.859375 -19.8125 12.921875 -19.8125 C 12.421875 -19.8125 11.90625 -19.691406 11.375 -19.453125 C 10.84375 -19.222656 10.347656 -18.828125 9.890625 -18.265625 C 9.429688 -17.703125 9.03125 -16.957031 8.6875 -16.03125 C 8.351562 -15.101562 8.125 -13.960938 8 -12.609375 Z M 7.96875 -10.390625 C 8.050781 -7.765625 8.6875 -5.835938 9.875 -4.609375 C 11.070312 -3.390625 12.570312 -2.78125 14.375 -2.78125 C 15.675781 -2.78125 16.742188 -3.066406 17.578125 -3.640625 C 18.421875 -4.222656 19.179688 -5.046875 19.859375 -6.109375 L 21.359375 -5.265625 C 20.773438 -3.316406 19.671875 -1.84375 18.046875 -0.84375 C 16.421875 0.15625 14.488281 0.65625 12.25 0.65625 C 10.65625 0.65625 9.195312 0.40625 7.875 -0.09375 C 6.550781 -0.59375 5.421875 -1.320312 4.484375 -2.28125 C 3.554688 -3.238281 2.832031 -4.414062 2.3125 -5.8125 C 1.800781 -7.21875 1.546875 -8.816406 1.546875 -10.609375 C 1.546875 -12.296875 1.828125 -13.832031 2.390625 -15.21875 C 2.953125 -16.601562 3.722656 -17.800781 4.703125 -18.8125 C 5.691406 -19.832031 6.863281 -20.625 8.21875 -21.1875 C 9.582031 -21.75 11.046875 -22.03125 12.609375 -22.03125 C 14.023438 -22.03125 15.300781 -21.800781 16.4375 -21.34375 C 17.570312 -20.882812 18.535156 -20.242188 19.328125 -19.421875 C 20.128906 -18.597656 20.742188 -17.609375 21.171875 -16.453125 C 21.597656 -15.304688 21.8125 -14.050781 21.8125 -12.6875 C 21.8125 -11.863281 21.722656 -11.097656 21.546875 -10.390625 Z M 7.96875 -10.390625 "/></g></g></g><g fill="#ffffff" fill-opacity="1"><g transform="translate(173.104329, 219.773702)"><g><path d="M 25.6875 -23.78125 C 25.632812 -23.832031 25.601562 -23.878906 25.59375 -23.921875 C 25.59375 -23.960938 25.570312 -23.984375 25.53125 -23.984375 C 25.5 -23.941406 25.503906 -23.894531 25.546875 -23.84375 C 25.585938 -23.800781 25.632812 -23.78125 25.6875 -23.78125 C 25.6875 -23.78125 25.6875 -23.769531 25.6875 -23.75 C 25.6875 -23.726562 25.691406 -23.695312 25.703125 -23.65625 C 25.640625 -23.695312 25.566406 -23.71875 25.484375 -23.71875 C 25.484375 -23.851562 25.445312 -23.9375 25.375 -23.96875 C 25.3125 -24.007812 25.238281 -24.046875 25.15625 -24.078125 C 25.113281 -23.992188 25.125 -23.953125 25.1875 -23.953125 C 25.25 -23.960938 25.265625 -23.925781 25.234375 -23.84375 C 25.234375 -23.882812 25.210938 -23.898438 25.171875 -23.890625 C 25.171875 -23.847656 25.179688 -23.828125 25.203125 -23.828125 C 25.222656 -23.835938 25.234375 -23.84375 25.234375 -23.84375 C 25.316406 -23.84375 25.359375 -23.796875 25.359375 -23.703125 C 25.316406 -23.742188 25.253906 -23.757812 25.171875 -23.75 C 25.085938 -23.75 25.019531 -23.773438 24.96875 -23.828125 C 24.894531 -23.640625 24.929688 -23.539062 25.078125 -23.53125 C 25.234375 -23.519531 25.296875 -23.472656 25.265625 -23.390625 C 25.222656 -23.335938 25.175781 -23.351562 25.125 -23.4375 C 25.082031 -23.519531 25.035156 -23.519531 24.984375 -23.4375 C 24.984375 -23.476562 24.941406 -23.535156 24.859375 -23.609375 C 24.816406 -23.609375 24.796875 -23.566406 24.796875 -23.484375 C 24.753906 -23.484375 24.734375 -23.503906 24.734375 -23.546875 C 24.734375 -23.585938 24.691406 -23.582031 24.609375 -23.53125 C 24.648438 -23.570312 24.625 -23.632812 24.53125 -23.71875 C 24.488281 -23.71875 24.476562 -23.695312 24.5 -23.65625 C 24.53125 -23.613281 24.523438 -23.570312 24.484375 -23.53125 C 24.378906 -23.644531 24.289062 -23.660156 24.21875 -23.578125 C 24.164062 -23.617188 24.140625 -23.648438 24.140625 -23.671875 C 24.140625 -23.691406 24.117188 -23.722656 24.078125 -23.765625 C 24.035156 -23.765625 24.023438 -23.738281 24.046875 -23.6875 C 24.066406 -23.644531 24.0625 -23.601562 24.03125 -23.5625 C 24.195312 -23.53125 24.367188 -23.488281 24.546875 -23.4375 C 24.722656 -23.382812 24.875 -23.300781 25 -23.1875 C 24.75 -23.25 24.535156 -23.304688 24.359375 -23.359375 C 24.179688 -23.410156 23.941406 -23.453125 23.640625 -23.484375 C 23.554688 -23.390625 23.582031 -23.347656 23.71875 -23.359375 C 23.5 -23.347656 23.269531 -23.363281 23.03125 -23.40625 C 22.800781 -23.457031 22.582031 -23.457031 22.375 -23.40625 C 22.507812 -23.289062 22.660156 -23.25 22.828125 -23.28125 C 22.992188 -23.3125 23.164062 -23.269531 23.34375 -23.15625 C 23.425781 -23.238281 23.46875 -23.28125 23.46875 -23.28125 C 23.46875 -23.28125 23.476562 -23.269531 23.5 -23.25 C 23.519531 -23.226562 23.53125 -23.195312 23.53125 -23.15625 C 23.488281 -23.15625 23.46875 -23.132812 23.46875 -23.09375 C 23.507812 -23.09375 23.53125 -23.101562 23.53125 -23.125 C 23.53125 -23.144531 23.53125 -23.15625 23.53125 -23.15625 C 23.570312 -23.15625 23.601562 -23.125 23.625 -23.0625 C 23.65625 -23 23.628906 -22.941406 23.546875 -22.890625 C 23.335938 -22.960938 23.113281 -22.988281 22.875 -22.96875 C 22.644531 -22.957031 22.378906 -22.972656 22.078125 -23.015625 C 22.128906 -22.960938 22.179688 -22.925781 22.234375 -22.90625 C 22.296875 -22.894531 22.304688 -22.847656 22.265625 -22.765625 C 22.359375 -22.804688 22.425781 -22.804688 22.46875 -22.765625 C 22.507812 -22.722656 22.550781 -22.726562 22.59375 -22.78125 C 22.6875 -22.695312 22.726562 -22.675781 22.71875 -22.71875 C 22.71875 -22.84375 22.675781 -22.863281 22.59375 -22.78125 C 22.59375 -22.863281 22.546875 -22.890625 22.453125 -22.859375 C 22.367188 -22.835938 22.328125 -22.847656 22.328125 -22.890625 C 22.585938 -22.898438 22.804688 -22.828125 22.984375 -22.671875 C 22.984375 -22.585938 22.9375 -22.582031 22.84375 -22.65625 C 22.757812 -22.738281 22.722656 -22.71875 22.734375 -22.59375 C 22.691406 -22.59375 22.664062 -22.632812 22.65625 -22.71875 C 22.613281 -22.71875 22.597656 -22.675781 22.609375 -22.59375 C 22.609375 -22.632812 22.519531 -22.648438 22.34375 -22.640625 C 22.332031 -22.722656 22.304688 -22.75 22.265625 -22.71875 C 22.234375 -22.695312 22.222656 -22.644531 22.234375 -22.5625 C 22.066406 -22.59375 21.851562 -22.625 21.59375 -22.65625 C 21.332031 -22.6875 21.097656 -22.648438 20.890625 -22.546875 C 20.671875 -22.742188 20.457031 -22.734375 20.25 -22.515625 C 20.425781 -22.484375 20.597656 -22.484375 20.765625 -22.515625 C 20.929688 -22.546875 21.144531 -22.523438 21.40625 -22.453125 C 21.914062 -22.523438 22.492188 -22.519531 23.140625 -22.4375 C 22.921875 -22.363281 22.707031 -22.332031 22.5 -22.34375 C 22.289062 -22.363281 22.082031 -22.367188 21.875 -22.359375 C 21.875 -22.304688 21.894531 -22.28125 21.9375 -22.28125 C 21.976562 -22.28125 22 -22.257812 22 -22.21875 C 22 -22.21875 22.003906 -22.175781 22.015625 -22.09375 C 22.015625 -22.09375 22.007812 -22.101562 22 -22.125 C 22 -22.144531 22 -22.175781 22 -22.21875 C 22.164062 -22.269531 22.3125 -22.28125 22.4375 -22.25 C 22.382812 -22.207031 22.304688 -22.179688 22.203125 -22.171875 C 22.109375 -22.171875 22.085938 -22.109375 22.140625 -21.984375 C 22.097656 -22.066406 22 -22.082031 21.84375 -22.03125 C 21.695312 -21.976562 21.582031 -21.96875 21.5 -22 C 21.457031 -22 21.4375 -21.957031 21.4375 -21.875 C 21.394531 -21.957031 21.285156 -21.992188 21.109375 -21.984375 C 20.941406 -21.972656 20.773438 -21.960938 20.609375 -21.953125 C 20.566406 -21.953125 20.546875 -21.910156 20.546875 -21.828125 C 20.398438 -21.984375 20.25 -21.972656 20.09375 -21.796875 C 20.09375 -21.878906 20.070312 -21.921875 20.03125 -21.921875 C 19.988281 -21.921875 19.976562 -21.898438 20 -21.859375 C 20.019531 -21.816406 20.015625 -21.773438 19.984375 -21.734375 C 19.984375 -21.691406 19.96875 -21.734375 19.9375 -21.859375 C 19.90625 -21.984375 19.847656 -21.976562 19.765625 -21.84375 C 19.640625 -21.832031 19.523438 -21.832031 19.421875 -21.84375 C 19.316406 -21.863281 19.222656 -21.851562 19.140625 -21.8125 C 19.085938 -21.8125 19.0625 -21.820312 19.0625 -21.84375 C 19.0625 -21.863281 19.039062 -21.867188 19 -21.859375 C 19 -21.816406 19.019531 -21.785156 19.0625 -21.765625 C 19.113281 -21.753906 19.117188 -21.726562 19.078125 -21.6875 C 19.078125 -21.6875 19.050781 -21.691406 19 -21.703125 C 18.957031 -21.722656 18.941406 -21.710938 18.953125 -21.671875 C 18.992188 -21.628906 19.085938 -21.613281 19.234375 -21.625 C 19.390625 -21.632812 19.421875 -21.675781 19.328125 -21.75 C 19.378906 -21.71875 19.445312 -21.671875 19.53125 -21.609375 C 19.613281 -21.554688 19.65625 -21.59375 19.65625 -21.71875 C 19.65625 -21.632812 19.71875 -21.613281 19.84375 -21.65625 C 19.976562 -21.707031 20.066406 -21.691406 20.109375 -21.609375 C 20.148438 -21.617188 20.171875 -21.632812 20.171875 -21.65625 C 20.171875 -21.675781 20.191406 -21.6875 20.234375 -21.6875 C 20.492188 -21.613281 20.738281 -21.601562 20.96875 -21.65625 C 21.207031 -21.71875 21.429688 -21.710938 21.640625 -21.640625 C 21.472656 -21.578125 21.226562 -21.546875 20.90625 -21.546875 C 20.582031 -21.554688 20.320312 -21.507812 20.125 -21.40625 C 20.113281 -21.445312 20.097656 -21.46875 20.078125 -21.46875 C 20.054688 -21.46875 20.046875 -21.492188 20.046875 -21.546875 C 20.003906 -21.546875 19.988281 -21.5 20 -21.40625 C 19.601562 -21.5625 19.28125 -21.539062 19.03125 -21.34375 C 18.976562 -21.4375 18.84375 -21.460938 18.625 -21.421875 C 18.414062 -21.390625 18.335938 -21.332031 18.390625 -21.25 C 18.472656 -21.332031 18.578125 -21.335938 18.703125 -21.265625 C 18.835938 -21.191406 18.945312 -21.21875 19.03125 -21.34375 C 19.25 -21.269531 19.421875 -21.257812 19.546875 -21.3125 C 19.671875 -21.363281 19.800781 -21.351562 19.9375 -21.28125 C 19.976562 -21.28125 20 -21.320312 20 -21.40625 C 20.125 -21.332031 20.257812 -21.316406 20.40625 -21.359375 C 20.5625 -21.410156 20.722656 -21.421875 20.890625 -21.390625 C 20.898438 -21.265625 20.925781 -21.179688 20.96875 -21.140625 C 20.96875 -21.097656 20.914062 -21.082031 20.8125 -21.09375 C 20.707031 -21.113281 20.632812 -21.144531 20.59375 -21.1875 C 20.632812 -21.1875 20.664062 -21.1875 20.6875 -21.1875 C 20.707031 -21.1875 20.71875 -21.1875 20.71875 -21.1875 C 20.707031 -21.226562 20.660156 -21.25 20.578125 -21.25 C 20.535156 -21.25 20.523438 -21.238281 20.546875 -21.21875 C 20.578125 -21.195312 20.59375 -21.1875 20.59375 -21.1875 C 20.550781 -21.1875 20.53125 -21.125 20.53125 -21 C 20.394531 -21.113281 20.332031 -21.0625 20.34375 -20.84375 C 20.300781 -20.894531 20.195312 -20.914062 20.03125 -20.90625 C 20.019531 -20.945312 20.015625 -20.976562 20.015625 -21 C 20.015625 -21.019531 20.015625 -21.03125 20.015625 -21.03125 C 19.972656 -21.03125 19.957031 -20.960938 19.96875 -20.828125 C 19.875 -20.867188 19.796875 -20.863281 19.734375 -20.8125 C 19.671875 -20.757812 19.597656 -20.753906 19.515625 -20.796875 C 19.515625 -20.847656 19.503906 -20.875 19.484375 -20.875 C 19.460938 -20.875 19.445312 -20.894531 19.4375 -20.9375 C 19.28125 -20.882812 19.132812 -20.835938 19 -20.796875 C 18.875 -20.765625 18.726562 -20.742188 18.5625 -20.734375 C 18.507812 -20.734375 18.492188 -20.710938 18.515625 -20.671875 C 18.546875 -20.628906 18.539062 -20.585938 18.5 -20.546875 C 18.375 -20.535156 18.3125 -20.53125 18.3125 -20.53125 C 18.132812 -20.707031 17.875 -20.726562 17.53125 -20.59375 C 17.195312 -20.46875 16.925781 -20.359375 16.71875 -20.265625 C 16.375 -20.367188 15.988281 -20.351562 15.5625 -20.21875 C 15.144531 -20.09375 14.757812 -20.039062 14.40625 -20.0625 C 13.476562 -19.882812 12.570312 -19.710938 11.6875 -19.546875 C 10.800781 -19.390625 10.007812 -19.160156 9.3125 -18.859375 C 9.257812 -18.859375 9.222656 -18.859375 9.203125 -18.859375 C 9.179688 -18.859375 9.148438 -18.851562 9.109375 -18.84375 C 8.953125 -18.664062 8.742188 -18.582031 8.484375 -18.59375 C 8.222656 -18.601562 7.988281 -18.554688 7.78125 -18.453125 C 7.1875 -18.378906 6.554688 -18.34375 5.890625 -18.34375 C 5.234375 -18.351562 4.722656 -18.519531 4.359375 -18.84375 C 4.117188 -19.300781 3.78125 -19.632812 3.34375 -19.84375 C 2.914062 -20.050781 2.578125 -20.40625 2.328125 -20.90625 C 2.265625 -21.25 2.222656 -21.601562 2.203125 -21.96875 C 2.179688 -22.332031 2.117188 -22.65625 2.015625 -22.9375 C 2.054688 -23.0625 2.09375 -23.203125 2.125 -23.359375 C 2.15625 -23.515625 2.191406 -23.613281 2.234375 -23.65625 C 2.234375 -23.65625 2.28125 -23.660156 2.375 -23.671875 C 2.375 -23.671875 2.367188 -23.734375 2.359375 -23.859375 C 2.441406 -23.804688 2.503906 -23.804688 2.546875 -23.859375 C 2.585938 -23.910156 2.582031 -23.972656 2.53125 -24.046875 C 2.695312 -24.054688 2.875 -24.023438 3.0625 -23.953125 C 5.007812 -23.972656 7.117188 -24.113281 9.390625 -24.375 C 11.660156 -24.632812 13.945312 -24.863281 16.25 -25.0625 C 18.550781 -25.257812 20.707031 -25.25 22.71875 -25.03125 C 23.101562 -24.957031 23.519531 -24.894531 23.96875 -24.84375 C 24.425781 -24.789062 24.8125 -24.6875 25.125 -24.53125 C 25.382812 -24.457031 25.644531 -24.351562 25.90625 -24.21875 C 26.164062 -24.09375 26.332031 -23.921875 26.40625 -23.703125 C 26.34375 -23.742188 26.300781 -23.785156 26.28125 -23.828125 C 26.257812 -23.867188 26.207031 -23.863281 26.125 -23.8125 C 26.21875 -23.726562 26.300781 -23.582031 26.375 -23.375 C 26.457031 -23.164062 26.4375 -22.992188 26.3125 -22.859375 C 26.257812 -22.898438 26.242188 -22.941406 26.265625 -22.984375 C 26.285156 -23.023438 26.273438 -23.066406 26.234375 -23.109375 C 26.234375 -23.109375 26.234375 -23.097656 26.234375 -23.078125 C 26.234375 -23.054688 26.234375 -23.046875 26.234375 -23.046875 C 26.148438 -23.128906 26.078125 -23.265625 26.015625 -23.453125 C 25.960938 -23.640625 25.851562 -23.75 25.6875 -23.78125 Z M 2.546875 -23.78125 C 2.597656 -23.71875 2.617188 -23.726562 2.609375 -23.8125 C 2.609375 -23.894531 2.585938 -23.882812 2.546875 -23.78125 Z M 2.421875 -23.71875 Z M 2.859375 -23.734375 C 2.859375 -23.734375 2.847656 -23.734375 2.828125 -23.734375 C 2.804688 -23.734375 2.816406 -23.734375 2.859375 -23.734375 Z M 3.015625 -23.703125 C 3.015625 -23.703125 3.007812 -23.707031 3 -23.71875 C 3 -23.738281 3.003906 -23.734375 3.015625 -23.703125 Z M 2.625 -23.625 Z M 17.1875 -24.453125 Z M 17.4375 -24.53125 C 17.351562 -24.53125 17.3125 -24.507812 17.3125 -24.46875 C 17.394531 -24.46875 17.4375 -24.488281 17.4375 -24.53125 Z M 3.765625 -23.6875 C 3.765625 -23.644531 3.765625 -23.632812 3.765625 -23.65625 C 3.765625 -23.675781 3.765625 -23.6875 3.765625 -23.6875 Z M 6.703125 -23.796875 C 6.703125 -23.796875 6.691406 -23.789062 6.671875 -23.78125 C 6.648438 -23.78125 6.660156 -23.785156 6.703125 -23.796875 Z M 19.609375 -24.46875 Z M 20.328125 -24.515625 C 20.378906 -24.472656 20.390625 -24.460938 20.359375 -24.484375 C 20.335938 -24.503906 20.328125 -24.515625 20.328125 -24.515625 Z M 20.46875 -24.453125 C 20.46875 -24.453125 20.476562 -24.453125 20.5 -24.453125 C 20.519531 -24.453125 20.53125 -24.453125 20.53125 -24.453125 C 20.519531 -24.492188 20.515625 -24.515625 20.515625 -24.515625 C 20.515625 -24.515625 20.503906 -24.515625 20.484375 -24.515625 C 20.460938 -24.515625 20.453125 -24.515625 20.453125 -24.515625 C 20.453125 -24.515625 20.457031 -24.492188 20.46875 -24.453125 Z M 20.65625 -24.46875 Z M 20.78125 -24.46875 C 20.820312 -24.476562 20.832031 -24.476562 20.8125 -24.46875 C 20.789062 -24.46875 20.78125 -24.46875 20.78125 -24.46875 Z M 20.984375 -24.421875 C 21.066406 -24.390625 21.101562 -24.414062 21.09375 -24.5 C 21.09375 -24.582031 21.050781 -24.597656 20.96875 -24.546875 C 20.976562 -24.503906 20.984375 -24.484375 20.984375 -24.484375 C 20.984375 -24.484375 20.984375 -24.460938 20.984375 -24.421875 Z M 13.484375 -24.0625 C 13.484375 -24.0625 13.472656 -24.054688 13.453125 -24.046875 C 13.429688 -24.046875 13.421875 -24.046875 13.421875 -24.046875 C 13.460938 -24.054688 13.484375 -24.0625 13.484375 -24.0625 Z M 21.171875 -24.5 C 21.253906 -24.414062 21.28125 -24.414062 21.25 -24.5 C 21.226562 -24.582031 21.203125 -24.582031 21.171875 -24.5 Z M 21.359375 -24.5 C 21.441406 -24.46875 21.492188 -24.460938 21.515625 -24.484375 C 21.535156 -24.503906 21.484375 -24.507812 21.359375 -24.5 C 21.359375 -24.5 21.347656 -24.5 21.328125 -24.5 C 21.304688 -24.5 21.316406 -24.5 21.359375 -24.5 Z M 3.90625 -23.4375 Z M 4.21875 -23.515625 C 4.21875 -23.472656 4.207031 -23.460938 4.1875 -23.484375 C 4.164062 -23.503906 4.15625 -23.492188 4.15625 -23.453125 C 4.195312 -23.453125 4.21875 -23.472656 4.21875 -23.515625 Z M 13.109375 -23.96875 C 13.148438 -23.96875 13.160156 -23.96875 13.140625 -23.96875 C 13.117188 -23.96875 13.109375 -23.96875 13.109375 -23.96875 Z M 21.546875 -24.453125 C 21.585938 -24.453125 21.597656 -24.453125 21.578125 -24.453125 C 21.554688 -24.453125 21.546875 -24.453125 21.546875 -24.453125 Z M 24.03125 -24.53125 C 24.03125 -24.488281 24.03125 -24.476562 24.03125 -24.5 C 24.03125 -24.519531 24.03125 -24.53125 24.03125 -24.53125 Z M 16.125 -23.9375 C 16.113281 -23.988281 16.109375 -24 16.109375 -23.96875 C 16.117188 -23.945312 16.125 -23.9375 16.125 -23.9375 Z M 16.1875 -23.875 C 16.269531 -23.925781 16.332031 -23.953125 16.375 -23.953125 C 16.425781 -23.953125 16.46875 -23.984375 16.5 -24.046875 C 16.46875 -23.984375 16.40625 -23.960938 16.3125 -23.984375 C 16.21875 -24.003906 16.175781 -23.96875 16.1875 -23.875 Z M 16.578125 -23.96875 C 16.617188 -23.96875 16.628906 -23.96875 16.609375 -23.96875 C 16.585938 -23.96875 16.578125 -23.96875 16.578125 -23.96875 Z M 17.09375 -24 C 17.09375 -24 17.09375 -23.976562 17.09375 -23.9375 C 17.164062 -24.03125 17.203125 -24.078125 17.203125 -24.078125 C 17.160156 -24.078125 17.128906 -24.0625 17.109375 -24.03125 C 17.097656 -24.007812 17.09375 -24 17.09375 -24 C 17.082031 -24.050781 17.03125 -24.070312 16.9375 -24.0625 C 16.851562 -24.0625 16.835938 -24.035156 16.890625 -23.984375 C 16.984375 -23.992188 17.03125 -24 17.03125 -24 C 17.03125 -24 17.050781 -24 17.09375 -24 Z M 17.390625 -24.09375 C 17.390625 -24.09375 17.367188 -24.078125 17.328125 -24.046875 C 17.296875 -24.015625 17.28125 -24 17.28125 -24 C 17.28125 -23.957031 17.300781 -23.945312 17.34375 -23.96875 C 17.382812 -24 17.398438 -24.039062 17.390625 -24.09375 Z M 18.234375 -24 C 18.097656 -24.082031 17.976562 -24.109375 17.875 -24.078125 C 17.78125 -24.046875 17.664062 -24.023438 17.53125 -24.015625 C 17.625 -24.023438 17.742188 -24.007812 17.890625 -23.96875 C 18.035156 -23.9375 18.148438 -23.945312 18.234375 -24 Z M 22.828125 -24.328125 C 22.828125 -24.328125 22.816406 -24.328125 22.796875 -24.328125 C 22.773438 -24.328125 22.785156 -24.328125 22.828125 -24.328125 Z M 18.296875 -24 C 18.722656 -23.988281 18.828125 -24.007812 18.609375 -24.0625 C 18.390625 -24.113281 18.285156 -24.09375 18.296875 -24 Z M 18.8125 -24.03125 C 18.851562 -23.988281 18.863281 -23.976562 18.84375 -24 C 18.820312 -24.019531 18.8125 -24.03125 18.8125 -24.03125 Z M 19.140625 -24.046875 C 19.140625 -24.003906 19.140625 -23.992188 19.140625 -24.015625 C 19.140625 -24.035156 19.140625 -24.046875 19.140625 -24.046875 Z M 19.453125 -24.0625 Z M 23.03125 -24.28125 C 23.070312 -24.238281 23.082031 -24.226562 23.0625 -24.25 C 23.039062 -24.269531 23.03125 -24.28125 23.03125 -24.28125 Z M 24.4375 -24.359375 C 24.476562 -24.316406 24.488281 -24.304688 24.46875 -24.328125 C 24.445312 -24.347656 24.4375 -24.359375 24.4375 -24.359375 Z M 19.515625 -24.015625 C 19.597656 -24.015625 19.640625 -24.015625 19.640625 -24.015625 C 19.640625 -24.054688 19.617188 -24.078125 19.578125 -24.078125 C 19.535156 -24.078125 19.515625 -24.054688 19.515625 -24.015625 Z M 19.71875 -24.015625 C 19.71875 -23.972656 19.71875 -23.960938 19.71875 -23.984375 C 19.71875 -24.003906 19.71875 -24.015625 19.71875 -24.015625 Z M 19.90625 -24.03125 C 19.90625 -23.988281 19.90625 -23.976562 19.90625 -24 C 19.90625 -24.019531 19.90625 -24.03125 19.90625 -24.03125 Z M 20.03125 -24.046875 C 20.082031 -23.960938 20.101562 -23.960938 20.09375 -24.046875 C 20.09375 -24.128906 20.070312 -24.128906 20.03125 -24.046875 Z M 20.359375 -24 C 20.359375 -24.039062 20.359375 -24.050781 20.359375 -24.03125 C 20.359375 -24.007812 20.359375 -24 20.359375 -24 Z M 20.5 -23.9375 C 20.5 -23.9375 20.507812 -23.9375 20.53125 -23.9375 C 20.550781 -23.9375 20.5625 -23.9375 20.5625 -23.9375 C 20.550781 -23.976562 20.546875 -24 20.546875 -24 C 20.546875 -24 20.546875 -24.019531 20.546875 -24.0625 C 20.546875 -24.0625 20.535156 -24.0625 20.515625 -24.0625 C 20.492188 -24.0625 20.484375 -24.0625 20.484375 -24.0625 C 20.484375 -24.019531 20.484375 -24 20.484375 -24 C 20.484375 -24 20.488281 -23.976562 20.5 -23.9375 Z M 5.96875 -23.171875 C 5.96875 -23.171875 5.957031 -23.171875 5.9375 -23.171875 C 5.914062 -23.171875 5.910156 -23.148438 5.921875 -23.109375 C 5.953125 -23.148438 5.96875 -23.171875 5.96875 -23.171875 Z M 6.109375 -23.109375 C 6.109375 -23.109375 6.101562 -23.117188 6.09375 -23.140625 C 6.09375 -23.160156 6.097656 -23.148438 6.109375 -23.109375 Z M 24.515625 -24.171875 C 24.554688 -24.085938 24.570312 -24.085938 24.5625 -24.171875 C 24.5625 -24.253906 24.546875 -24.253906 24.515625 -24.171875 Z M 24.890625 -24.1875 C 24.890625 -24.144531 24.890625 -24.132812 24.890625 -24.15625 C 24.890625 -24.175781 24.890625 -24.1875 24.890625 -24.1875 Z M 24.640625 -24.109375 Z M 13.96875 -23.5 C 13.96875 -23.457031 13.96875 -23.445312 13.96875 -23.46875 C 13.96875 -23.488281 13.96875 -23.5 13.96875 -23.5 Z M 16.140625 -23.625 C 16.179688 -23.582031 16.191406 -23.570312 16.171875 -23.59375 C 16.148438 -23.613281 16.140625 -23.625 16.140625 -23.625 Z M 16.265625 -23.640625 C 16.265625 -23.597656 16.265625 -23.585938 16.265625 -23.609375 C 16.265625 -23.628906 16.265625 -23.640625 16.265625 -23.640625 Z M 24.640625 -23.984375 C 24.640625 -24.023438 24.628906 -24.046875 24.609375 -24.046875 C 24.585938 -24.046875 24.578125 -24.023438 24.578125 -23.984375 C 24.617188 -23.984375 24.640625 -23.984375 24.640625 -23.984375 Z M 22.90625 -23.890625 C 22.945312 -23.847656 22.957031 -23.835938 22.9375 -23.859375 C 22.914062 -23.878906 22.90625 -23.890625 22.90625 -23.890625 Z M 25.109375 -23.828125 C 25.109375 -23.867188 25.101562 -23.898438 25.09375 -23.921875 C 25.09375 -23.941406 25.09375 -23.972656 25.09375 -24.015625 C 25.050781 -24.015625 25.003906 -24.019531 24.953125 -24.03125 C 24.910156 -24.050781 24.867188 -24.039062 24.828125 -24 C 24.910156 -24.007812 24.96875 -23.992188 25 -23.953125 C 25.03125 -23.910156 25.066406 -23.867188 25.109375 -23.828125 Z M 22.59375 -23.8125 C 22.6875 -23.769531 22.71875 -23.78125 22.6875 -23.84375 C 22.664062 -23.90625 22.632812 -23.894531 22.59375 -23.8125 Z M 23.4375 -23.796875 C 23.476562 -23.796875 23.5 -23.796875 23.5 -23.796875 C 23.5 -23.796875 23.492188 -23.804688 23.484375 -23.828125 C 23.484375 -23.847656 23.484375 -23.859375 23.484375 -23.859375 C 23.484375 -23.859375 23.460938 -23.859375 23.421875 -23.859375 C 23.421875 -23.859375 23.421875 -23.847656 23.421875 -23.828125 C 23.429688 -23.804688 23.4375 -23.796875 23.4375 -23.796875 Z M 3.5 -22.65625 C 3.539062 -22.65625 3.550781 -22.65625 3.53125 -22.65625 C 3.507812 -22.65625 3.5 -22.65625 3.5 -22.65625 Z M 3.671875 -22.71875 C 3.597656 -22.632812 3.5625 -22.613281 3.5625 -22.65625 C 3.644531 -22.65625 3.679688 -22.675781 3.671875 -22.71875 Z M 3.765625 -22.671875 C 3.804688 -22.671875 3.816406 -22.671875 3.796875 -22.671875 C 3.773438 -22.671875 3.765625 -22.671875 3.765625 -22.671875 Z M 3.953125 -22.671875 C 3.941406 -22.710938 3.925781 -22.734375 3.90625 -22.734375 C 3.882812 -22.734375 3.878906 -22.710938 3.890625 -22.671875 C 3.929688 -22.671875 3.953125 -22.671875 3.953125 -22.671875 Z M 4.078125 -22.6875 C 4.078125 -22.644531 4.070312 -22.65625 4.0625 -22.71875 C 4.0625 -22.78125 4.066406 -22.769531 4.078125 -22.6875 Z M 23.703125 -23.671875 C 23.691406 -23.804688 23.703125 -23.816406 23.734375 -23.703125 C 23.765625 -23.597656 23.796875 -23.585938 23.828125 -23.671875 C 23.828125 -23.671875 23.828125 -23.71875 23.828125 -23.8125 C 23.785156 -23.8125 23.757812 -23.820312 23.75 -23.84375 C 23.75 -23.863281 23.703125 -23.875 23.609375 -23.875 C 23.617188 -23.738281 23.648438 -23.671875 23.703125 -23.671875 Z M 24.265625 -23.703125 C 24.359375 -23.765625 24.367188 -23.8125 24.296875 -23.84375 C 24.222656 -23.882812 24.171875 -23.863281 24.140625 -23.78125 C 24.179688 -23.820312 24.222656 -23.796875 24.265625 -23.703125 Z M 23.890625 -23.625 C 23.972656 -23.625 24.015625 -23.671875 24.015625 -23.765625 C 24.015625 -23.765625 24.003906 -23.773438 23.984375 -23.796875 C 23.960938 -23.816406 23.929688 -23.804688 23.890625 -23.765625 C 23.890625 -23.765625 23.890625 -23.71875 23.890625 -23.625 Z M 24.84375 -23.8125 C 24.84375 -23.8125 24.832031 -23.820312 24.8125 -23.84375 C 24.789062 -23.863281 24.78125 -23.851562 24.78125 -23.8125 C 24.820312 -23.8125 24.84375 -23.8125 24.84375 -23.8125 Z M 9.578125 -22.859375 C 9.585938 -22.773438 9.546875 -22.769531 9.453125 -22.84375 C 9.503906 -22.6875 9.59375 -22.640625 9.71875 -22.703125 C 9.84375 -22.773438 9.929688 -22.769531 9.984375 -22.6875 C 9.972656 -22.8125 9.925781 -22.875 9.84375 -22.875 C 9.800781 -22.875 9.757812 -22.847656 9.71875 -22.796875 C 9.675781 -22.753906 9.628906 -22.773438 9.578125 -22.859375 Z M 10.109375 -22.765625 C 10.066406 -22.765625 10.054688 -22.765625 10.078125 -22.765625 C 10.097656 -22.765625 10.109375 -22.765625 10.109375 -22.765625 C 10.140625 -22.804688 10.179688 -22.804688 10.234375 -22.765625 C 10.273438 -22.773438 10.289062 -22.789062 10.28125 -22.8125 C 10.28125 -22.832031 10.28125 -22.84375 10.28125 -22.84375 C 10.28125 -22.84375 10.28125 -22.863281 10.28125 -22.90625 C 10.238281 -22.851562 10.195312 -22.847656 10.15625 -22.890625 C 10.113281 -22.941406 10.070312 -22.941406 10.03125 -22.890625 C 10.03125 -22.847656 10.039062 -22.828125 10.0625 -22.828125 C 10.082031 -22.828125 10.097656 -22.804688 10.109375 -22.765625 Z M 8.875 -22.75 C 8.875 -22.75 8.875 -22.738281 8.875 -22.71875 C 8.882812 -22.695312 8.890625 -22.6875 8.890625 -22.6875 C 8.890625 -22.6875 8.898438 -22.6875 8.921875 -22.6875 C 8.941406 -22.695312 8.953125 -22.703125 8.953125 -22.703125 C 8.953125 -22.703125 8.945312 -22.710938 8.9375 -22.734375 C 8.9375 -22.753906 8.9375 -22.785156 8.9375 -22.828125 C 8.9375 -22.828125 8.914062 -22.820312 8.875 -22.8125 C 8.875 -22.769531 8.875 -22.75 8.875 -22.75 Z M 17.890625 -23.28125 C 17.898438 -23.238281 17.898438 -23.226562 17.890625 -23.25 C 17.890625 -23.269531 17.890625 -23.28125 17.890625 -23.28125 Z M 20.640625 -23.4375 C 20.679688 -23.4375 20.691406 -23.4375 20.671875 -23.4375 C 20.648438 -23.4375 20.640625 -23.4375 20.640625 -23.4375 Z M 8.1875 -22.65625 C 8.1875 -22.65625 8.195312 -22.65625 8.21875 -22.65625 C 8.238281 -22.65625 8.226562 -22.632812 8.1875 -22.59375 C 8.226562 -22.59375 8.25 -22.59375 8.25 -22.59375 C 8.25 -22.59375 8.269531 -22.59375 8.3125 -22.59375 C 8.300781 -22.675781 8.273438 -22.71875 8.234375 -22.71875 C 8.242188 -22.675781 8.238281 -22.65625 8.21875 -22.65625 C 8.195312 -22.65625 8.1875 -22.65625 8.1875 -22.65625 Z M 8.765625 -22.625 C 8.753906 -22.707031 8.738281 -22.738281 8.71875 -22.71875 C 8.707031 -22.695312 8.675781 -22.703125 8.625 -22.734375 C 8.632812 -22.648438 8.679688 -22.613281 8.765625 -22.625 Z M 9.40625 -22.71875 C 9.351562 -22.757812 9.304688 -22.78125 9.265625 -22.78125 C 9.234375 -22.738281 9.25 -22.707031 9.3125 -22.6875 C 9.375 -22.664062 9.40625 -22.675781 9.40625 -22.71875 Z M 14.890625 -23.03125 C 14.878906 -23.070312 14.863281 -23.09375 14.84375 -23.09375 C 14.820312 -23.09375 14.816406 -23.070312 14.828125 -23.03125 C 14.828125 -23.03125 14.835938 -23.03125 14.859375 -23.03125 C 14.878906 -23.03125 14.890625 -23.03125 14.890625 -23.03125 Z M 18.09375 -23.21875 C 18.09375 -23.21875 18.078125 -23.226562 18.046875 -23.25 C 18.023438 -23.269531 18.039062 -23.257812 18.09375 -23.21875 Z M 18.265625 -23.296875 C 18.140625 -23.328125 18.097656 -23.320312 18.140625 -23.28125 C 18.191406 -23.25 18.234375 -23.253906 18.265625 -23.296875 Z M 18.734375 -23.265625 C 18.734375 -23.265625 18.726562 -23.273438 18.71875 -23.296875 C 18.71875 -23.316406 18.722656 -23.304688 18.734375 -23.265625 Z M 19.125 -23.28125 Z M 19.4375 -23.296875 Z M 21.171875 -23.40625 Z M 21.359375 -23.40625 C 21.398438 -23.363281 21.414062 -23.375 21.40625 -23.4375 C 21.40625 -23.5 21.390625 -23.488281 21.359375 -23.40625 Z M 21.609375 -23.296875 C 21.609375 -23.378906 21.617188 -23.421875 21.640625 -23.421875 C 21.660156 -23.421875 21.695312 -23.382812 21.75 -23.3125 C 21.75 -23.394531 21.769531 -23.4375 21.8125 -23.4375 C 21.632812 -23.425781 21.519531 -23.441406 21.46875 -23.484375 C 21.519531 -23.441406 21.546875 -23.398438 21.546875 -23.359375 C 21.546875 -23.316406 21.566406 -23.296875 21.609375 -23.296875 Z M 23 -23.5 C 23 -23.5 22.992188 -23.507812 22.984375 -23.53125 C 22.984375 -23.550781 22.988281 -23.539062 23 -23.5 Z M 8.3125 -22.65625 C 8.351562 -22.613281 8.382812 -22.625 8.40625 -22.6875 C 8.425781 -22.757812 8.394531 -22.75 8.3125 -22.65625 Z M 9.15625 -22.703125 C 9.113281 -22.703125 9.09375 -22.703125 9.09375 -22.703125 C 9.09375 -22.703125 9.101562 -22.703125 9.125 -22.703125 C 9.144531 -22.703125 9.15625 -22.703125 9.15625 -22.703125 Z M 15.859375 -23.09375 C 15.859375 -23.050781 15.859375 -23.039062 15.859375 -23.0625 C 15.859375 -23.082031 15.859375 -23.09375 15.859375 -23.09375 Z M 19.828125 -23.265625 C 19.859375 -23.347656 19.816406 -23.382812 19.703125 -23.375 C 19.597656 -23.375 19.550781 -23.351562 19.5625 -23.3125 C 19.644531 -23.269531 19.695312 -23.257812 19.71875 -23.28125 C 19.75 -23.300781 19.785156 -23.296875 19.828125 -23.265625 Z M 20.015625 -23.328125 C 20.015625 -23.285156 20.015625 -23.273438 20.015625 -23.296875 C 20.015625 -23.316406 20.015625 -23.328125 20.015625 -23.328125 Z M 20.203125 -23.34375 C 20.203125 -23.34375 20.1875 -23.351562 20.15625 -23.375 C 20.132812 -23.394531 20.109375 -23.382812 20.078125 -23.34375 C 20.160156 -23.34375 20.203125 -23.34375 20.203125 -23.34375 Z M 20.203125 -23.34375 C 20.242188 -23.257812 20.257812 -23.257812 20.25 -23.34375 C 20.25 -23.425781 20.234375 -23.425781 20.203125 -23.34375 Z M 21.8125 -23.375 C 21.894531 -23.375 21.957031 -23.375 22 -23.375 C 22.039062 -23.382812 22.082031 -23.390625 22.125 -23.390625 C 22.15625 -23.472656 22.117188 -23.5 22.015625 -23.46875 C 21.921875 -23.445312 21.851562 -23.414062 21.8125 -23.375 Z M 24.796875 -23.609375 C 24.753906 -23.609375 24.722656 -23.601562 24.703125 -23.59375 C 24.679688 -23.59375 24.671875 -23.59375 24.671875 -23.59375 C 24.710938 -23.601562 24.742188 -23.609375 24.765625 -23.609375 C 24.785156 -23.609375 24.796875 -23.609375 24.796875 -23.609375 Z M 20.265625 -23.28125 C 20.304688 -23.28125 20.316406 -23.28125 20.296875 -23.28125 C 20.273438 -23.28125 20.265625 -23.28125 20.265625 -23.28125 Z M 20.71875 -23.3125 C 20.757812 -23.269531 20.773438 -23.28125 20.765625 -23.34375 C 20.765625 -23.40625 20.75 -23.394531 20.71875 -23.3125 Z M 20.84375 -23.3125 C 20.882812 -23.320312 20.894531 -23.320312 20.875 -23.3125 C 20.851562 -23.3125 20.84375 -23.3125 20.84375 -23.3125 Z M 22.1875 -23.328125 C 22.1875 -23.328125 22.191406 -23.316406 22.203125 -23.296875 C 22.222656 -23.285156 22.21875 -23.296875 22.1875 -23.328125 C 22.21875 -23.335938 22.234375 -23.34375 22.234375 -23.34375 C 22.234375 -23.425781 22.21875 -23.460938 22.1875 -23.453125 C 22.1875 -23.410156 22.1875 -23.390625 22.1875 -23.390625 C 22.1875 -23.390625 22.1875 -23.367188 22.1875 -23.328125 Z M 23.453125 -23.46875 C 23.453125 -23.46875 23.441406 -23.46875 23.421875 -23.46875 C 23.398438 -23.46875 23.410156 -23.46875 23.453125 -23.46875 Z M 23.515625 -23.46875 C 23.554688 -23.425781 23.570312 -23.4375 23.5625 -23.5 C 23.5625 -23.5625 23.546875 -23.550781 23.515625 -23.46875 Z M 21.171875 -23.34375 Z M 21.421875 -23.34375 C 21.460938 -23.351562 21.472656 -23.351562 21.453125 -23.34375 C 21.429688 -23.34375 21.421875 -23.34375 21.421875 -23.34375 Z M 14.0625 -22.921875 C 13.976562 -22.835938 13.9375 -22.816406 13.9375 -22.859375 C 14.019531 -22.859375 14.0625 -22.878906 14.0625 -22.921875 Z M 6.78125 -22.390625 Z M 22 -23.265625 C 22 -23.265625 22 -23.273438 22 -23.296875 C 22 -23.316406 22 -23.304688 22 -23.265625 Z M 22.0625 -23.265625 C 22.0625 -23.265625 22.0625 -23.273438 22.0625 -23.296875 C 22.0625 -23.316406 22.0625 -23.304688 22.0625 -23.265625 Z M 18.609375 -23.0625 C 18.617188 -23.019531 18.632812 -23 18.65625 -23 C 18.675781 -23 18.679688 -23.019531 18.671875 -23.0625 C 18.628906 -23.0625 18.609375 -23.0625 18.609375 -23.0625 Z M 12.296875 -22.640625 C 12.335938 -22.597656 12.351562 -22.609375 12.34375 -22.671875 C 12.34375 -22.734375 12.328125 -22.722656 12.296875 -22.640625 Z M 19.90625 -23.078125 Z M 20.09375 -23.09375 Z M 20.34375 -23.09375 Z M 20.671875 -23.125 C 20.710938 -23.082031 20.726562 -23.09375 20.71875 -23.15625 C 20.71875 -23.21875 20.703125 -23.207031 20.671875 -23.125 Z M 9.9375 -22.375 C 9.9375 -22.414062 9.976562 -22.4375 10.0625 -22.4375 C 10.144531 -22.445312 10.144531 -22.472656 10.0625 -22.515625 C 10.0625 -22.472656 10.03125 -22.445312 9.96875 -22.4375 C 9.90625 -22.4375 9.894531 -22.414062 9.9375 -22.375 Z M 10.640625 -22.546875 C 10.640625 -22.460938 10.632812 -22.460938 10.625 -22.546875 C 10.625 -22.628906 10.628906 -22.628906 10.640625 -22.546875 Z M 10.890625 -22.5625 C 10.890625 -22.519531 10.890625 -22.507812 10.890625 -22.53125 C 10.890625 -22.550781 10.890625 -22.5625 10.890625 -22.5625 Z M 11.21875 -22.578125 C 11.257812 -22.535156 11.269531 -22.523438 11.25 -22.546875 C 11.226562 -22.566406 11.21875 -22.578125 11.21875 -22.578125 Z M 11.46875 -22.59375 C 11.46875 -22.550781 11.46875 -22.539062 11.46875 -22.5625 C 11.46875 -22.582031 11.46875 -22.59375 11.46875 -22.59375 Z M 20.609375 -23.109375 C 20.609375 -23.109375 20.597656 -23.109375 20.578125 -23.109375 C 20.554688 -23.109375 20.546875 -23.109375 20.546875 -23.109375 C 20.585938 -23.109375 20.609375 -23.109375 20.609375 -23.109375 Z M 21.0625 -23.140625 C 21.0625 -23.097656 21.0625 -23.085938 21.0625 -23.109375 C 21.0625 -23.128906 21.0625 -23.140625 21.0625 -23.140625 Z M 21.6875 -23.171875 C 21.519531 -23.117188 21.5 -23.109375 21.625 -23.140625 C 21.757812 -23.171875 21.78125 -23.179688 21.6875 -23.171875 Z M 10.375 -22.53125 C 10.332031 -22.488281 10.289062 -22.472656 10.25 -22.484375 C 10.207031 -22.503906 10.1875 -22.492188 10.1875 -22.453125 C 10.320312 -22.328125 10.382812 -22.351562 10.375 -22.53125 Z M 10.515625 -22.46875 Z M 22.390625 -23.15625 C 22.265625 -23.144531 22.171875 -23.148438 22.109375 -23.171875 C 22.046875 -23.191406 21.953125 -23.175781 21.828125 -23.125 C 22.148438 -23.0625 22.335938 -23.070312 22.390625 -23.15625 Z M 9.546875 -22.421875 C 9.503906 -22.410156 9.484375 -22.382812 9.484375 -22.34375 C 9.484375 -22.382812 9.492188 -22.394531 9.515625 -22.375 C 9.535156 -22.363281 9.546875 -22.378906 9.546875 -22.421875 Z M 9.671875 -22.359375 C 9.671875 -22.359375 9.660156 -22.367188 9.640625 -22.390625 C 9.617188 -22.410156 9.628906 -22.398438 9.671875 -22.359375 Z M 16.453125 -22.8125 C 16.398438 -22.8125 16.375 -22.789062 16.375 -22.75 C 16.375 -22.789062 16.382812 -22.800781 16.40625 -22.78125 C 16.4375 -22.757812 16.453125 -22.769531 16.453125 -22.8125 Z M 17.34375 -22.859375 C 17.257812 -22.859375 17.21875 -22.835938 17.21875 -22.796875 C 17.300781 -22.878906 17.34375 -22.898438 17.34375 -22.859375 Z M 23.34375 -23.09375 C 23.351562 -23.039062 23.390625 -23.015625 23.453125 -23.015625 C 23.515625 -23.015625 23.539062 -23.039062 23.53125 -23.09375 C 23.5 -23.039062 23.476562 -23.035156 23.46875 -23.078125 C 23.46875 -23.128906 23.425781 -23.132812 23.34375 -23.09375 C 23.300781 -23.125 23.191406 -23.132812 23.015625 -23.125 C 22.847656 -23.113281 22.679688 -23.125 22.515625 -23.15625 C 22.597656 -23.082031 22.734375 -23.050781 22.921875 -23.0625 C 23.117188 -23.070312 23.257812 -23.082031 23.34375 -23.09375 Z M 16.890625 -22.78125 C 16.890625 -22.738281 16.890625 -22.726562 16.890625 -22.75 C 16.890625 -22.769531 16.890625 -22.78125 16.890625 -22.78125 Z M 17.40625 -22.8125 C 17.445312 -22.769531 17.457031 -22.757812 17.4375 -22.78125 C 17.414062 -22.800781 17.40625 -22.8125 17.40625 -22.8125 Z M 18.359375 -22.859375 C 18.359375 -22.816406 18.359375 -22.804688 18.359375 -22.828125 C 18.359375 -22.847656 18.359375 -22.859375 18.359375 -22.859375 Z M 18.875 -22.890625 C 18.875 -22.890625 18.863281 -22.890625 18.84375 -22.890625 C 18.820312 -22.890625 18.8125 -22.890625 18.8125 -22.890625 C 18.851562 -22.890625 18.875 -22.890625 18.875 -22.890625 Z M 19.140625 -22.90625 C 19.140625 -22.90625 19.128906 -22.914062 19.109375 -22.9375 C 19.085938 -22.957031 19.078125 -22.945312 19.078125 -22.90625 C 19.078125 -22.90625 19.085938 -22.90625 19.109375 -22.90625 C 19.128906 -22.90625 19.140625 -22.90625 19.140625 -22.90625 Z M 19.515625 -22.921875 C 19.554688 -22.890625 19.566406 -22.878906 19.546875 -22.890625 C 19.523438 -22.910156 19.515625 -22.921875 19.515625 -22.921875 Z M 19.703125 -22.9375 C 19.703125 -22.894531 19.703125 -22.882812 19.703125 -22.90625 C 19.703125 -22.925781 19.703125 -22.9375 19.703125 -22.9375 Z M 19.78125 -22.9375 C 19.78125 -22.894531 19.78125 -22.882812 19.78125 -22.90625 C 19.78125 -22.925781 19.78125 -22.9375 19.78125 -22.9375 Z M 20.625 -22.78125 C 20.664062 -22.832031 20.71875 -22.835938 20.78125 -22.796875 C 20.84375 -22.753906 20.894531 -22.738281 20.9375 -22.75 C 20.894531 -22.820312 20.835938 -22.867188 20.765625 -22.890625 C 20.703125 -22.921875 20.671875 -22.957031 20.671875 -23 C 20.710938 -22.957031 20.703125 -22.921875 20.640625 -22.890625 C 20.585938 -22.859375 20.582031 -22.820312 20.625 -22.78125 Z M 20.921875 -22.953125 Z M 20.984375 -22.953125 C 21.035156 -22.953125 21.046875 -22.953125 21.015625 -22.953125 C 20.992188 -22.953125 20.984375 -22.953125 20.984375 -22.953125 Z M 21.375 -22.96875 C 21.375 -22.96875 21.363281 -22.96875 21.34375 -22.96875 C 21.320312 -22.96875 21.332031 -22.96875 21.375 -22.96875 Z M 21.4375 -22.96875 C 21.476562 -22.976562 21.519531 -23.003906 21.5625 -23.046875 C 21.476562 -23.035156 21.4375 -23.007812 21.4375 -22.96875 Z M 21.640625 -22.78125 C 21.640625 -22.863281 21.632812 -22.914062 21.625 -22.9375 C 21.625 -22.96875 21.625 -22.984375 21.625 -22.984375 C 21.582031 -22.984375 21.550781 -22.945312 21.53125 -22.875 C 21.519531 -22.8125 21.554688 -22.78125 21.640625 -22.78125 Z M 21.765625 -23 C 21.773438 -22.945312 21.765625 -22.894531 21.734375 -22.84375 C 21.710938 -22.800781 21.75 -22.785156 21.84375 -22.796875 C 21.84375 -22.835938 21.84375 -22.867188 21.84375 -22.890625 C 21.84375 -22.910156 21.84375 -22.921875 21.84375 -22.921875 C 21.96875 -22.929688 22.003906 -22.957031 21.953125 -23 C 21.921875 -22.945312 21.878906 -22.941406 21.828125 -22.984375 C 21.785156 -23.035156 21.738281 -23.035156 21.6875 -22.984375 C 21.6875 -22.984375 21.695312 -22.984375 21.71875 -22.984375 C 21.75 -22.992188 21.765625 -23 21.765625 -23 Z M 19.796875 -22.734375 C 19.796875 -22.734375 19.796875 -22.742188 19.796875 -22.765625 C 19.796875 -22.785156 19.796875 -22.773438 19.796875 -22.734375 Z M 20.234375 -22.765625 C 20.316406 -22.804688 20.328125 -22.828125 20.265625 -22.828125 C 20.203125 -22.828125 20.191406 -22.804688 20.234375 -22.765625 Z M 20.5 -22.84375 C 20.457031 -22.84375 20.4375 -22.820312 20.4375 -22.78125 C 20.4375 -22.820312 20.445312 -22.832031 20.46875 -22.8125 C 20.488281 -22.789062 20.5 -22.800781 20.5 -22.84375 Z M 21.203125 -22.765625 C 21.203125 -22.804688 21.242188 -22.816406 21.328125 -22.796875 C 21.410156 -22.773438 21.429688 -22.785156 21.390625 -22.828125 C 21.347656 -22.867188 21.242188 -22.882812 21.078125 -22.875 C 21.078125 -22.832031 21.097656 -22.8125 21.140625 -22.8125 C 21.179688 -22.820312 21.203125 -22.804688 21.203125 -22.765625 Z M 19.921875 -22.75 C 19.921875 -22.707031 19.921875 -22.695312 19.921875 -22.71875 C 19.921875 -22.738281 19.921875 -22.75 19.921875 -22.75 Z M 20.046875 -22.75 C 20.085938 -22.71875 20.097656 -22.707031 20.078125 -22.71875 C 20.054688 -22.738281 20.046875 -22.75 20.046875 -22.75 Z M 21 -22.8125 Z M 21.390625 -22.828125 C 21.472656 -22.753906 21.5 -22.757812 21.46875 -22.84375 C 21.445312 -22.925781 21.421875 -22.921875 21.390625 -22.828125 Z M 21.84375 -22.796875 C 21.882812 -22.753906 21.90625 -22.765625 21.90625 -22.828125 C 21.90625 -22.890625 21.882812 -22.878906 21.84375 -22.796875 Z M 21.96875 -22.796875 C 21.96875 -22.796875 21.988281 -22.800781 22.03125 -22.8125 C 22.03125 -22.8125 22.03125 -22.832031 22.03125 -22.875 C 21.988281 -22.863281 21.96875 -22.859375 21.96875 -22.859375 C 21.96875 -22.816406 21.96875 -22.796875 21.96875 -22.796875 Z M 22.09375 -22.8125 C 22.09375 -22.769531 22.113281 -22.75 22.15625 -22.75 C 22.15625 -22.789062 22.164062 -22.8125 22.1875 -22.8125 C 22.207031 -22.8125 22.21875 -22.8125 22.21875 -22.8125 C 22.175781 -22.8125 22.15625 -22.820312 22.15625 -22.84375 C 22.15625 -22.863281 22.132812 -22.875 22.09375 -22.875 C 22.09375 -22.832031 22.09375 -22.8125 22.09375 -22.8125 Z M 18.3125 -22.46875 C 18.269531 -22.507812 18.21875 -22.515625 18.15625 -22.484375 C 18.09375 -22.460938 18.019531 -22.472656 17.9375 -22.515625 C 17.9375 -22.472656 18 -22.453125 18.125 -22.453125 C 18.25 -22.460938 18.3125 -22.46875 18.3125 -22.46875 Z M 19.46875 -22.53125 C 19.46875 -22.53125 19.46875 -22.519531 19.46875 -22.5 C 19.476562 -22.476562 19.484375 -22.46875 19.484375 -22.46875 C 19.597656 -22.519531 19.734375 -22.53125 19.890625 -22.5 C 20.046875 -22.46875 20.140625 -22.492188 20.171875 -22.578125 C 20.085938 -22.566406 19.96875 -22.566406 19.8125 -22.578125 C 19.664062 -22.597656 19.550781 -22.582031 19.46875 -22.53125 C 19.425781 -22.570312 19.328125 -22.546875 19.171875 -22.453125 C 19.378906 -22.460938 19.476562 -22.488281 19.46875 -22.53125 Z M 12.375 -22.125 C 12.4375 -22.082031 12.453125 -22.070312 12.421875 -22.09375 C 12.390625 -22.113281 12.375 -22.125 12.375 -22.125 Z M 16.140625 -22.34375 C 16.148438 -22.300781 16.148438 -22.289062 16.140625 -22.3125 C 16.140625 -22.332031 16.140625 -22.34375 16.140625 -22.34375 Z M 16.59375 -22.375 C 16.550781 -22.363281 16.519531 -22.359375 16.5 -22.359375 C 16.476562 -22.359375 16.46875 -22.359375 16.46875 -22.359375 C 16.507812 -22.359375 16.539062 -22.359375 16.5625 -22.359375 C 16.582031 -22.367188 16.59375 -22.375 16.59375 -22.375 Z M 17.609375 -22.421875 C 17.609375 -22.421875 17.597656 -22.421875 17.578125 -22.421875 C 17.554688 -22.421875 17.546875 -22.421875 17.546875 -22.421875 C 17.585938 -22.421875 17.609375 -22.421875 17.609375 -22.421875 Z M 18.515625 -22.484375 C 18.566406 -22.441406 18.578125 -22.429688 18.546875 -22.453125 C 18.523438 -22.472656 18.515625 -22.484375 18.515625 -22.484375 Z M 18.703125 -22.484375 C 18.753906 -22.453125 18.765625 -22.441406 18.734375 -22.453125 C 18.710938 -22.472656 18.703125 -22.484375 18.703125 -22.484375 Z M 19.109375 -22.453125 C 19.140625 -22.535156 19.097656 -22.570312 18.984375 -22.5625 C 18.878906 -22.5625 18.828125 -22.539062 18.828125 -22.5 C 18.878906 -22.457031 18.972656 -22.441406 19.109375 -22.453125 Z M 10.734375 -21.90625 C 10.773438 -21.90625 10.785156 -21.90625 10.765625 -21.90625 C 10.742188 -21.90625 10.734375 -21.90625 10.734375 -21.90625 Z M 10.15625 -21.75 C 10.164062 -21.707031 10.164062 -21.695312 10.15625 -21.71875 C 10.15625 -21.738281 10.15625 -21.75 10.15625 -21.75 Z M 13.15625 -21.921875 C 13.15625 -21.921875 13.144531 -21.921875 13.125 -21.921875 C 13.101562 -21.921875 13.066406 -21.914062 13.015625 -21.90625 C 13.109375 -21.914062 13.15625 -21.921875 13.15625 -21.921875 Z M 13.34375 -21.9375 C 13.300781 -21.925781 13.269531 -21.921875 13.25 -21.921875 C 13.226562 -21.921875 13.21875 -21.921875 13.21875 -21.921875 C 13.257812 -21.921875 13.289062 -21.921875 13.3125 -21.921875 C 13.332031 -21.929688 13.34375 -21.9375 13.34375 -21.9375 Z M 18.71875 -22.234375 C 18.769531 -22.203125 18.78125 -22.191406 18.75 -22.203125 C 18.726562 -22.222656 18.71875 -22.234375 18.71875 -22.234375 Z M 18.90625 -22.25 C 18.957031 -22.207031 18.96875 -22.195312 18.9375 -22.21875 C 18.914062 -22.238281 18.90625 -22.25 18.90625 -22.25 Z M 19.03125 -22.265625 C 19.039062 -22.222656 19.039062 -22.210938 19.03125 -22.234375 C 19.03125 -22.253906 19.03125 -22.265625 19.03125 -22.265625 Z M 19.171875 -22.265625 C 19.222656 -22.222656 19.234375 -22.210938 19.203125 -22.234375 C 19.179688 -22.253906 19.171875 -22.265625 19.171875 -22.265625 Z M 19.75 -22.234375 C 19.84375 -22.242188 19.882812 -22.269531 19.875 -22.3125 C 19.78125 -22.300781 19.738281 -22.273438 19.75 -22.234375 Z M 19.953125 -22.25 C 20.023438 -22.289062 20.101562 -22.300781 20.1875 -22.28125 C 20.28125 -22.269531 20.390625 -22.289062 20.515625 -22.34375 C 20.472656 -22.34375 20.375 -22.347656 20.21875 -22.359375 C 20.070312 -22.367188 19.984375 -22.332031 19.953125 -22.25 Z M 20.71875 -22.21875 C 20.75 -22.3125 20.703125 -22.351562 20.578125 -22.34375 C 20.578125 -22.34375 20.625 -22.300781 20.71875 -22.21875 Z M 9.15625 -21.625 C 9.195312 -21.625 9.207031 -21.625 9.1875 -21.625 C 9.164062 -21.625 9.15625 -21.625 9.15625 -21.625 Z M 9.34375 -21.640625 C 9.34375 -21.640625 9.332031 -21.640625 9.3125 -21.640625 C 9.289062 -21.640625 9.300781 -21.640625 9.34375 -21.640625 Z M 9.40625 -21.640625 Z M 21.03125 -22.3125 C 21.03125 -22.257812 21.039062 -22.242188 21.0625 -22.265625 C 21.09375 -22.296875 21.109375 -22.3125 21.109375 -22.3125 C 21.109375 -22.3125 21.109375 -22.285156 21.109375 -22.234375 C 21.191406 -22.296875 21.265625 -22.3125 21.328125 -22.28125 C 21.390625 -22.257812 21.441406 -22.273438 21.484375 -22.328125 C 21.441406 -22.328125 21.382812 -22.335938 21.3125 -22.359375 C 21.25 -22.378906 21.179688 -22.363281 21.109375 -22.3125 C 21.097656 -22.351562 21.09375 -22.363281 21.09375 -22.34375 C 21.101562 -22.320312 21.109375 -22.3125 21.109375 -22.3125 C 21.109375 -22.3125 21.09375 -22.3125 21.0625 -22.3125 C 21.039062 -22.3125 21.03125 -22.3125 21.03125 -22.3125 C 21.03125 -22.3125 21.023438 -22.332031 21.015625 -22.375 C 20.984375 -22.332031 20.929688 -22.316406 20.859375 -22.328125 C 20.796875 -22.347656 20.769531 -22.3125 20.78125 -22.21875 C 20.863281 -22.21875 20.914062 -22.234375 20.9375 -22.265625 C 20.957031 -22.296875 20.988281 -22.3125 21.03125 -22.3125 Z M 21.484375 -22.25 Z M 21.734375 -22.34375 C 21.648438 -22.34375 21.609375 -22.316406 21.609375 -22.265625 C 21.679688 -22.359375 21.722656 -22.382812 21.734375 -22.34375 Z M 7.09375 -21.375 C 7.144531 -21.375 7.15625 -21.375 7.125 -21.375 C 7.101562 -21.375 7.09375 -21.375 7.09375 -21.375 Z M 6.90625 -21.296875 C 7.03125 -21.304688 7.09375 -21.332031 7.09375 -21.375 C 7.050781 -21.363281 7.019531 -21.359375 7 -21.359375 C 6.976562 -21.359375 6.945312 -21.359375 6.90625 -21.359375 C 6.90625 -21.359375 6.90625 -21.347656 6.90625 -21.328125 C 6.90625 -21.304688 6.90625 -21.296875 6.90625 -21.296875 Z M 21.625 -22.078125 C 21.613281 -22.160156 21.609375 -22.203125 21.609375 -22.203125 C 21.609375 -22.203125 21.597656 -22.191406 21.578125 -22.171875 C 21.554688 -22.148438 21.570312 -22.117188 21.625 -22.078125 Z M 5.890625 -21.234375 C 5.847656 -21.234375 5.828125 -21.242188 5.828125 -21.265625 C 5.828125 -21.285156 5.800781 -21.296875 5.75 -21.296875 C 5.707031 -21.242188 5.722656 -21.207031 5.796875 -21.1875 C 5.867188 -21.175781 5.898438 -21.191406 5.890625 -21.234375 Z M 18.046875 -21.75 C 18.085938 -21.75 18.128906 -21.726562 18.171875 -21.6875 C 18.171875 -21.8125 18.128906 -21.851562 18.046875 -21.8125 C 18.046875 -21.8125 18.046875 -21.800781 18.046875 -21.78125 C 18.046875 -21.757812 18.046875 -21.75 18.046875 -21.75 Z M 18.5 -21.828125 C 18.445312 -21.785156 18.445312 -21.742188 18.5 -21.703125 C 18.550781 -21.671875 18.550781 -21.710938 18.5 -21.828125 C 18.539062 -21.835938 18.550781 -21.835938 18.53125 -21.828125 C 18.507812 -21.828125 18.5 -21.828125 18.5 -21.828125 Z M 21.3125 -22 C 21.351562 -21.957031 21.363281 -21.945312 21.34375 -21.96875 C 21.320312 -21.988281 21.3125 -22 21.3125 -22 Z M 16.125 -21.578125 C 16.164062 -21.617188 16.144531 -21.65625 16.0625 -21.6875 C 16.0625 -21.601562 16.082031 -21.566406 16.125 -21.578125 Z M 16.578125 -21.65625 C 16.578125 -21.65625 16.566406 -21.632812 16.546875 -21.59375 C 16.535156 -21.550781 16.550781 -21.53125 16.59375 -21.53125 C 16.59375 -21.53125 16.585938 -21.539062 16.578125 -21.5625 C 16.578125 -21.582031 16.597656 -21.597656 16.640625 -21.609375 C 16.640625 -21.609375 16.640625 -21.597656 16.640625 -21.578125 C 16.648438 -21.554688 16.675781 -21.546875 16.71875 -21.546875 C 16.664062 -21.585938 16.671875 -21.617188 16.734375 -21.640625 C 16.796875 -21.660156 16.785156 -21.691406 16.703125 -21.734375 C 16.710938 -21.609375 16.671875 -21.582031 16.578125 -21.65625 Z M 17.28125 -21.703125 C 17.28125 -21.660156 17.289062 -21.648438 17.3125 -21.671875 C 17.332031 -21.691406 17.363281 -21.679688 17.40625 -21.640625 C 17.445312 -21.691406 17.40625 -21.710938 17.28125 -21.703125 C 17.28125 -21.742188 17.28125 -21.753906 17.28125 -21.734375 C 17.28125 -21.710938 17.28125 -21.703125 17.28125 -21.703125 Z M 18.75 -21.71875 C 18.757812 -21.632812 18.804688 -21.597656 18.890625 -21.609375 C 18.890625 -21.609375 18.84375 -21.644531 18.75 -21.71875 C 18.789062 -21.8125 18.789062 -21.84375 18.75 -21.8125 C 18.707031 -21.789062 18.707031 -21.757812 18.75 -21.71875 Z M 18.9375 -21.796875 C 18.9375 -21.753906 18.9375 -21.765625 18.9375 -21.828125 C 18.9375 -21.890625 18.9375 -21.878906 18.9375 -21.796875 Z M 15.25 -21.390625 C 15.25 -21.390625 15.269531 -21.394531 15.3125 -21.40625 C 15.257812 -21.476562 15.253906 -21.503906 15.296875 -21.484375 C 15.347656 -21.472656 15.367188 -21.488281 15.359375 -21.53125 C 15.234375 -21.519531 15.171875 -21.515625 15.171875 -21.515625 C 15.179688 -21.472656 15.195312 -21.453125 15.21875 -21.453125 C 15.238281 -21.453125 15.25 -21.429688 15.25 -21.390625 Z M 15.734375 -21.609375 C 15.734375 -21.609375 15.710938 -21.609375 15.671875 -21.609375 C 15.628906 -21.566406 15.648438 -21.546875 15.734375 -21.546875 C 15.828125 -21.554688 15.828125 -21.578125 15.734375 -21.609375 Z M 15.9375 -21.5625 C 15.988281 -21.519531 16.03125 -21.507812 16.0625 -21.53125 C 16.101562 -21.5625 16.082031 -21.59375 16 -21.625 C 16 -21.582031 15.988281 -21.5625 15.96875 -21.5625 C 15.945312 -21.5625 15.9375 -21.5625 15.9375 -21.5625 Z M 16.4375 -21.59375 C 16.394531 -21.632812 16.34375 -21.660156 16.28125 -21.671875 C 16.21875 -21.691406 16.1875 -21.660156 16.1875 -21.578125 C 16.269531 -21.617188 16.320312 -21.617188 16.34375 -21.578125 C 16.375 -21.546875 16.40625 -21.550781 16.4375 -21.59375 Z M 16.84375 -21.546875 C 16.757812 -21.460938 16.71875 -21.441406 16.71875 -21.484375 C 16.84375 -21.492188 16.90625 -21.519531 16.90625 -21.5625 C 16.863281 -21.507812 16.859375 -21.523438 16.890625 -21.609375 C 16.929688 -21.703125 16.910156 -21.722656 16.828125 -21.671875 C 16.828125 -21.628906 16.828125 -21.597656 16.828125 -21.578125 C 16.835938 -21.554688 16.84375 -21.546875 16.84375 -21.546875 Z M 17.015625 -21.625 C 17.023438 -21.582031 17.023438 -21.59375 17.015625 -21.65625 C 17.015625 -21.71875 17.015625 -21.707031 17.015625 -21.625 Z M 18.8125 -21.734375 C 18.8125 -21.734375 18.8125 -21.742188 18.8125 -21.765625 C 18.8125 -21.785156 18.8125 -21.773438 18.8125 -21.734375 Z M 13.390625 -21.359375 C 13.390625 -21.359375 13.382812 -21.378906 13.375 -21.421875 C 13.375 -21.421875 13.375 -21.429688 13.375 -21.453125 C 13.375 -21.472656 13.375 -21.460938 13.375 -21.421875 C 13.382812 -21.378906 13.363281 -21.363281 13.3125 -21.375 C 13.269531 -21.394531 13.25 -21.40625 13.25 -21.40625 C 13.257812 -21.363281 13.304688 -21.347656 13.390625 -21.359375 Z M 13.625 -21.4375 C 13.632812 -21.394531 13.632812 -21.382812 13.625 -21.40625 C 13.625 -21.425781 13.625 -21.4375 13.625 -21.4375 Z M 13.765625 -21.375 C 13.816406 -21.332031 13.835938 -21.34375 13.828125 -21.40625 C 13.828125 -21.46875 13.800781 -21.476562 13.75 -21.4375 C 13.75 -21.4375 13.75 -21.425781 13.75 -21.40625 C 13.757812 -21.382812 13.765625 -21.375 13.765625 -21.375 Z M 14.71875 -21.5 Z M 14.859375 -21.4375 C 14.859375 -21.4375 14.878906 -21.4375 14.921875 -21.4375 C 14.910156 -21.476562 14.914062 -21.488281 14.9375 -21.46875 C 14.96875 -21.445312 14.976562 -21.457031 14.96875 -21.5 C 14.925781 -21.539062 14.90625 -21.539062 14.90625 -21.5 C 14.914062 -21.457031 14.894531 -21.457031 14.84375 -21.5 C 14.84375 -21.5 14.847656 -21.476562 14.859375 -21.4375 Z M 15.546875 -21.546875 Z M 15.609375 -21.546875 C 15.617188 -21.503906 15.617188 -21.492188 15.609375 -21.515625 C 15.609375 -21.535156 15.609375 -21.546875 15.609375 -21.546875 Z M 12.0625 -21.28125 C 12.0625 -21.28125 12.054688 -21.289062 12.046875 -21.3125 C 12.046875 -21.332031 12.023438 -21.335938 11.984375 -21.328125 C 11.953125 -21.285156 11.957031 -21.253906 12 -21.234375 C 12.039062 -21.222656 12.0625 -21.238281 12.0625 -21.28125 Z M 12.578125 -21.3125 C 12.535156 -21.300781 12.507812 -21.304688 12.5 -21.328125 C 12.5 -21.347656 12.472656 -21.359375 12.421875 -21.359375 C 12.390625 -21.316406 12.40625 -21.285156 12.46875 -21.265625 C 12.539062 -21.253906 12.578125 -21.269531 12.578125 -21.3125 Z M 12.875 -21.390625 C 12.832031 -21.378906 12.816406 -21.351562 12.828125 -21.3125 C 12.828125 -21.3125 12.835938 -21.3125 12.859375 -21.3125 C 12.878906 -21.320312 12.882812 -21.347656 12.875 -21.390625 Z M 13 -21.328125 C 13 -21.328125 12.988281 -21.328125 12.96875 -21.328125 C 12.945312 -21.328125 12.957031 -21.328125 13 -21.328125 Z M 13.0625 -21.328125 C 13.15625 -21.335938 13.195312 -21.363281 13.1875 -21.40625 C 13.09375 -21.394531 13.050781 -21.367188 13.0625 -21.328125 Z M 13.453125 -21.359375 Z M 13.90625 -21.390625 C 13.90625 -21.347656 13.921875 -21.347656 13.953125 -21.390625 C 13.992188 -21.429688 13.976562 -21.429688 13.90625 -21.390625 Z M 14.484375 -21.421875 C 14.523438 -21.378906 14.539062 -21.390625 14.53125 -21.453125 C 14.53125 -21.515625 14.515625 -21.503906 14.484375 -21.421875 Z M 12.375 -21.296875 C 12.375 -21.296875 12.363281 -21.296875 12.34375 -21.296875 C 12.320312 -21.296875 12.3125 -21.296875 12.3125 -21.296875 C 12.3125 -21.296875 12.320312 -21.296875 12.34375 -21.296875 C 12.363281 -21.296875 12.375 -21.296875 12.375 -21.296875 Z M 13.515625 -21.359375 C 13.515625 -21.316406 13.515625 -21.304688 13.515625 -21.328125 C 13.515625 -21.347656 13.515625 -21.359375 13.515625 -21.359375 Z M 16.203125 -21.515625 C 16.203125 -21.472656 16.203125 -21.460938 16.203125 -21.484375 C 16.203125 -21.503906 16.203125 -21.515625 16.203125 -21.515625 Z M 18.703125 -21.59375 C 18.785156 -21.644531 18.78125 -21.675781 18.6875 -21.6875 C 18.601562 -21.707031 18.566406 -21.695312 18.578125 -21.65625 C 18.578125 -21.65625 18.597656 -21.644531 18.640625 -21.625 C 18.679688 -21.601562 18.703125 -21.59375 18.703125 -21.59375 Z M 15.375 -21.40625 C 15.414062 -21.40625 15.425781 -21.40625 15.40625 -21.40625 C 15.382812 -21.40625 15.375 -21.40625 15.375 -21.40625 Z M 15.953125 -21.5 C 15.910156 -21.457031 15.890625 -21.4375 15.890625 -21.4375 C 15.890625 -21.4375 15.898438 -21.4375 15.921875 -21.4375 C 15.941406 -21.4375 15.953125 -21.457031 15.953125 -21.5 Z M 17.9375 -21.546875 Z M 14.15625 -21.265625 C 14.15625 -21.265625 14.15625 -21.253906 14.15625 -21.234375 C 14.15625 -21.210938 14.175781 -21.207031 14.21875 -21.21875 C 14.21875 -21.300781 14.195312 -21.335938 14.15625 -21.328125 C 14.15625 -21.328125 14.15625 -21.316406 14.15625 -21.296875 C 14.15625 -21.273438 14.15625 -21.265625 14.15625 -21.265625 Z M 14.546875 -21.296875 Z M 14.921875 -21.3125 Z M 13.84375 -21.25 C 13.84375 -21.207031 13.84375 -21.195312 13.84375 -21.21875 C 13.84375 -21.238281 13.84375 -21.25 13.84375 -21.25 Z M 13.90625 -21.265625 C 13.90625 -21.222656 13.90625 -21.210938 13.90625 -21.234375 C 13.90625 -21.253906 13.90625 -21.265625 13.90625 -21.265625 Z M 14.609375 -21.296875 C 14.648438 -21.253906 14.660156 -21.242188 14.640625 -21.265625 C 14.617188 -21.285156 14.609375 -21.296875 14.609375 -21.296875 Z M 11.6875 -20.921875 C 11.71875 -20.960938 11.753906 -20.984375 11.796875 -20.984375 C 11.847656 -20.992188 11.875 -21.023438 11.875 -21.078125 C 11.820312 -21.078125 11.757812 -21.023438 11.6875 -20.921875 Z M 11.9375 -21 Z M 12.125 -21.015625 Z M 12.3125 -21.03125 Z M 11.1875 -20.890625 C 11.226562 -20.859375 11.242188 -20.875 11.234375 -20.9375 C 11.234375 -21.007812 11.21875 -20.992188 11.1875 -20.890625 Z M 11.3125 -20.90625 C 11.394531 -20.90625 11.429688 -20.925781 11.421875 -20.96875 C 11.335938 -20.96875 11.300781 -20.945312 11.3125 -20.90625 Z M 11.5 -20.921875 C 11.5 -20.921875 11.484375 -20.925781 11.453125 -20.9375 C 11.429688 -20.957031 11.445312 -20.953125 11.5 -20.921875 Z M 11.625 -20.921875 C 11.625 -20.921875 11.617188 -20.929688 11.609375 -20.953125 C 11.609375 -20.972656 11.613281 -20.960938 11.625 -20.921875 Z M 10.34375 -20.78125 C 10.382812 -20.789062 10.4375 -20.804688 10.5 -20.828125 C 10.570312 -20.847656 10.5625 -20.859375 10.46875 -20.859375 C 10.46875 -20.816406 10.441406 -20.8125 10.390625 -20.84375 C 10.347656 -20.882812 10.332031 -20.863281 10.34375 -20.78125 Z M 10.671875 -20.875 C 10.671875 -20.832031 10.671875 -20.820312 10.671875 -20.84375 C 10.671875 -20.863281 10.671875 -20.875 10.671875 -20.875 Z M 10.984375 -20.890625 C 10.984375 -20.890625 10.972656 -20.882812 10.953125 -20.875 C 10.929688 -20.875 10.921875 -20.875 10.921875 -20.875 C 10.960938 -20.882812 10.984375 -20.890625 10.984375 -20.890625 Z M 11.046875 -20.890625 C 11.046875 -20.847656 11.046875 -20.835938 11.046875 -20.859375 C 11.046875 -20.878906 11.046875 -20.890625 11.046875 -20.890625 Z M 17.3125 -21.1875 C 17.3125 -21.1875 17.320312 -21.195312 17.34375 -21.21875 C 17.363281 -21.238281 17.351562 -21.25 17.3125 -21.25 C 17.3125 -21.25 17.300781 -21.238281 17.28125 -21.21875 C 17.257812 -21.195312 17.269531 -21.1875 17.3125 -21.1875 Z M 17.828125 -21.21875 C 17.828125 -21.132812 17.847656 -21.101562 17.890625 -21.125 C 17.929688 -21.144531 17.910156 -21.175781 17.828125 -21.21875 C 17.828125 -21.21875 17.835938 -21.226562 17.859375 -21.25 C 17.878906 -21.269531 17.890625 -21.28125 17.890625 -21.28125 C 17.847656 -21.28125 17.757812 -21.285156 17.625 -21.296875 C 17.488281 -21.304688 17.40625 -21.269531 17.375 -21.1875 C 17.457031 -21.238281 17.507812 -21.253906 17.53125 -21.234375 C 17.550781 -21.210938 17.582031 -21.203125 17.625 -21.203125 C 17.625 -21.203125 17.625 -21.210938 17.625 -21.234375 C 17.625 -21.253906 17.625 -21.265625 17.625 -21.265625 C 17.664062 -21.222656 17.695312 -21.210938 17.71875 -21.234375 C 17.738281 -21.265625 17.773438 -21.257812 17.828125 -21.21875 Z M 18.078125 -21.171875 C 18.035156 -21.253906 18.054688 -21.285156 18.140625 -21.265625 C 18.222656 -21.242188 18.242188 -21.253906 18.203125 -21.296875 C 18.160156 -21.296875 18.117188 -21.296875 18.078125 -21.296875 C 18.035156 -21.296875 17.992188 -21.289062 17.953125 -21.28125 C 17.953125 -21.28125 17.992188 -21.242188 18.078125 -21.171875 Z M 18.328125 -21.3125 C 18.328125 -21.269531 18.328125 -21.257812 18.328125 -21.28125 C 18.328125 -21.300781 18.328125 -21.3125 18.328125 -21.3125 Z M 9.84375 -20.75 C 9.882812 -20.757812 9.894531 -20.757812 9.875 -20.75 C 9.851562 -20.75 9.84375 -20.75 9.84375 -20.75 Z M 10.21875 -20.78125 C 10.257812 -20.78125 10.269531 -20.78125 10.25 -20.78125 C 10.226562 -20.78125 10.21875 -20.78125 10.21875 -20.78125 Z M 16.34375 -21.125 C 16.382812 -21.09375 16.40625 -21.085938 16.40625 -21.109375 C 16.40625 -21.128906 16.425781 -21.117188 16.46875 -21.078125 C 16.46875 -21.078125 16.46875 -21.085938 16.46875 -21.109375 C 16.46875 -21.128906 16.46875 -21.140625 16.46875 -21.140625 C 16.46875 -21.179688 16.46875 -21.203125 16.46875 -21.203125 C 16.46875 -21.160156 16.445312 -21.132812 16.40625 -21.125 C 16.363281 -21.125 16.34375 -21.125 16.34375 -21.125 Z M 16.859375 -21.09375 C 16.859375 -21.050781 16.859375 -21.039062 16.859375 -21.0625 C 16.859375 -21.082031 16.859375 -21.09375 16.859375 -21.09375 C 16.898438 -21.1875 16.867188 -21.226562 16.765625 -21.21875 C 16.660156 -21.207031 16.609375 -21.179688 16.609375 -21.140625 C 16.691406 -21.109375 16.742188 -21.113281 16.765625 -21.15625 C 16.785156 -21.195312 16.816406 -21.175781 16.859375 -21.09375 Z M 17.046875 -21.109375 C 17.046875 -21.148438 17.046875 -21.171875 17.046875 -21.171875 C 17.046875 -21.171875 17.046875 -21.191406 17.046875 -21.234375 C 16.921875 -21.179688 16.878906 -21.15625 16.921875 -21.15625 C 16.960938 -21.164062 17.003906 -21.148438 17.046875 -21.109375 Z M 17.25 -21.125 C 17.25 -21.082031 17.25 -21.070312 17.25 -21.09375 C 17.25 -21.113281 17.25 -21.125 17.25 -21.125 C 17.25 -21.164062 17.222656 -21.203125 17.171875 -21.234375 C 17.117188 -21.273438 17.097656 -21.253906 17.109375 -21.171875 C 17.109375 -21.171875 17.117188 -21.160156 17.140625 -21.140625 C 17.171875 -21.128906 17.207031 -21.125 17.25 -21.125 Z M 14.625 -20.90625 C 14.625 -20.945312 14.613281 -20.96875 14.59375 -20.96875 C 14.570312 -20.96875 14.5625 -20.988281 14.5625 -21.03125 C 14.5625 -20.945312 14.582031 -20.90625 14.625 -20.90625 Z M 14.75 -20.921875 C 14.75 -20.921875 14.769531 -20.921875 14.8125 -20.921875 C 14.8125 -20.921875 14.8125 -20.929688 14.8125 -20.953125 C 14.8125 -20.972656 14.8125 -20.984375 14.8125 -20.984375 C 14.8125 -20.984375 14.8125 -20.992188 14.8125 -21.015625 C 14.8125 -21.035156 14.789062 -21.046875 14.75 -21.046875 C 14.75 -20.960938 14.75 -20.921875 14.75 -20.921875 Z M 15.125 -21.0625 C 15.082031 -21.019531 15.050781 -21.003906 15.03125 -21.015625 C 15.007812 -21.035156 14.957031 -21.046875 14.875 -21.046875 C 14.832031 -20.960938 14.863281 -20.929688 14.96875 -20.953125 C 15.070312 -20.984375 15.125 -21.019531 15.125 -21.0625 Z M 15.125 -21 Z M 15.328125 -21.078125 C 15.328125 -21.035156 15.316406 -21.019531 15.296875 -21.03125 C 15.273438 -21.050781 15.265625 -21.039062 15.265625 -21 C 15.304688 -21.007812 15.328125 -21.035156 15.328125 -21.078125 Z M 15.515625 -21.078125 C 15.515625 -21.078125 15.503906 -21.066406 15.484375 -21.046875 C 15.460938 -21.023438 15.429688 -21.015625 15.390625 -21.015625 C 15.390625 -20.972656 15.421875 -20.960938 15.484375 -20.984375 C 15.546875 -21.015625 15.554688 -21.046875 15.515625 -21.078125 Z M 15.703125 -21.03125 C 15.703125 -21.03125 15.691406 -21.03125 15.671875 -21.03125 C 15.648438 -21.03125 15.660156 -21.03125 15.703125 -21.03125 Z M 15.765625 -21.03125 C 15.859375 -21 15.90625 -21.015625 15.90625 -21.078125 C 15.90625 -21.140625 15.859375 -21.125 15.765625 -21.03125 Z M 16.09375 -21.109375 C 16.007812 -21.023438 15.96875 -21.003906 15.96875 -21.046875 C 16.050781 -21.046875 16.09375 -21.066406 16.09375 -21.109375 Z M 17.4375 -21.125 Z M 19.03125 -21.21875 C 19.070312 -21.226562 19.082031 -21.226562 19.0625 -21.21875 C 19.039062 -21.21875 19.03125 -21.21875 19.03125 -21.21875 Z M 14.234375 -20.890625 C 14.191406 -20.878906 14.171875 -20.882812 14.171875 -20.90625 C 14.171875 -20.925781 14.128906 -20.9375 14.046875 -20.9375 C 14.046875 -20.894531 14.078125 -20.863281 14.140625 -20.84375 C 14.210938 -20.832031 14.242188 -20.847656 14.234375 -20.890625 Z M 14.359375 -20.890625 C 14.410156 -20.847656 14.429688 -20.859375 14.421875 -20.921875 C 14.421875 -20.984375 14.398438 -20.972656 14.359375 -20.890625 Z M 13.21875 -20.828125 C 13.269531 -20.785156 13.328125 -20.765625 13.390625 -20.765625 C 13.453125 -20.773438 13.484375 -20.78125 13.484375 -20.78125 C 13.390625 -20.851562 13.300781 -20.867188 13.21875 -20.828125 Z M 13.46875 -20.84375 C 13.5625 -20.757812 13.601562 -20.757812 13.59375 -20.84375 C 13.59375 -20.925781 13.550781 -20.925781 13.46875 -20.84375 Z M 13.796875 -20.796875 C 13.785156 -20.835938 13.71875 -20.851562 13.59375 -20.84375 C 13.601562 -20.800781 13.671875 -20.785156 13.796875 -20.796875 Z M 13.859375 -20.859375 C 13.910156 -20.785156 13.929688 -20.789062 13.921875 -20.875 C 13.921875 -20.957031 13.898438 -20.953125 13.859375 -20.859375 Z M 13.921875 -20.875 C 13.972656 -20.789062 13.992188 -20.789062 13.984375 -20.875 C 13.984375 -20.957031 13.960938 -20.957031 13.921875 -20.875 Z M 20.71875 -21.1875 C 20.757812 -21.195312 20.78125 -21.203125 20.78125 -21.203125 C 20.78125 -21.203125 20.800781 -21.203125 20.84375 -21.203125 C 20.84375 -21.203125 20.835938 -21.210938 20.828125 -21.234375 C 20.828125 -21.253906 20.804688 -21.265625 20.765625 -21.265625 C 20.773438 -21.222656 20.765625 -21.207031 20.734375 -21.21875 C 20.710938 -21.238281 20.707031 -21.226562 20.71875 -21.1875 Z M 12.734375 -20.734375 C 12.734375 -20.734375 12.734375 -20.722656 12.734375 -20.703125 C 12.734375 -20.679688 12.734375 -20.671875 12.734375 -20.671875 C 12.773438 -20.671875 12.796875 -20.671875 12.796875 -20.671875 C 12.796875 -20.671875 12.816406 -20.671875 12.859375 -20.671875 C 12.859375 -20.671875 12.859375 -20.679688 12.859375 -20.703125 C 12.859375 -20.722656 12.859375 -20.734375 12.859375 -20.734375 C 12.859375 -20.734375 12.851562 -20.753906 12.84375 -20.796875 C 12.84375 -20.796875 12.832031 -20.796875 12.8125 -20.796875 C 12.789062 -20.796875 12.78125 -20.796875 12.78125 -20.796875 C 12.789062 -20.753906 12.773438 -20.734375 12.734375 -20.734375 Z M 13.171875 -20.765625 Z M 19.3125 -21.109375 C 19.4375 -21.117188 19.472656 -21.144531 19.421875 -21.1875 C 19.378906 -21.175781 19.347656 -21.160156 19.328125 -21.140625 C 19.316406 -21.117188 19.3125 -21.109375 19.3125 -21.109375 Z M 19.625 -21.125 C 19.664062 -21.09375 19.679688 -21.109375 19.671875 -21.171875 C 19.671875 -21.234375 19.65625 -21.21875 19.625 -21.125 Z M 19.953125 -21.15625 C 19.953125 -21.15625 19.941406 -21.148438 19.921875 -21.140625 C 19.898438 -21.140625 19.910156 -21.144531 19.953125 -21.15625 Z M 20.078125 -21.15625 C 20.203125 -21.164062 20.265625 -21.171875 20.265625 -21.171875 C 20.296875 -21.253906 20.269531 -21.28125 20.1875 -21.25 C 20.101562 -21.226562 20.066406 -21.195312 20.078125 -21.15625 Z M 20.390625 -21.171875 C 20.429688 -21.171875 20.453125 -21.171875 20.453125 -21.171875 C 20.453125 -21.171875 20.476562 -21.175781 20.53125 -21.1875 C 20.5625 -21.226562 20.539062 -21.242188 20.46875 -21.234375 C 20.40625 -21.234375 20.378906 -21.210938 20.390625 -21.171875 C 20.390625 -21.171875 20.398438 -21.171875 20.421875 -21.171875 C 20.441406 -21.171875 20.429688 -21.171875 20.390625 -21.171875 Z M 11.90625 -20.5625 C 11.988281 -20.644531 12.039062 -20.675781 12.0625 -20.65625 C 12.082031 -20.644531 12.113281 -20.660156 12.15625 -20.703125 C 12.113281 -20.703125 12.070312 -20.695312 12.03125 -20.6875 C 11.988281 -20.6875 11.945312 -20.6875 11.90625 -20.6875 C 11.90625 -20.6875 11.90625 -20.675781 11.90625 -20.65625 C 11.90625 -20.632812 11.90625 -20.601562 11.90625 -20.5625 Z M 12.40625 -20.71875 C 12.40625 -20.71875 12.425781 -20.71875 12.46875 -20.71875 C 12.519531 -20.59375 12.550781 -20.582031 12.5625 -20.6875 C 12.582031 -20.800781 12.550781 -20.8125 12.46875 -20.71875 C 12.46875 -20.71875 12.457031 -20.71875 12.4375 -20.71875 C 12.414062 -20.71875 12.40625 -20.71875 12.40625 -20.71875 C 12.363281 -20.675781 12.316406 -20.671875 12.265625 -20.703125 C 12.222656 -20.742188 12.1875 -20.722656 12.15625 -20.640625 C 12.320312 -20.648438 12.40625 -20.675781 12.40625 -20.71875 Z M 12.546875 -20.65625 C 12.585938 -20.664062 12.609375 -20.671875 12.609375 -20.671875 C 12.609375 -20.671875 12.628906 -20.671875 12.671875 -20.671875 C 12.671875 -20.671875 12.671875 -20.679688 12.671875 -20.703125 C 12.671875 -20.722656 12.671875 -20.734375 12.671875 -20.734375 C 12.628906 -20.734375 12.609375 -20.734375 12.609375 -20.734375 C 12.609375 -20.734375 12.585938 -20.726562 12.546875 -20.71875 C 12.546875 -20.71875 12.546875 -20.707031 12.546875 -20.6875 C 12.546875 -20.664062 12.546875 -20.65625 12.546875 -20.65625 Z M 12.671875 -20.734375 C 12.710938 -20.691406 12.722656 -20.679688 12.703125 -20.703125 C 12.679688 -20.722656 12.671875 -20.734375 12.671875 -20.734375 Z M 13.03125 -20.75 C 12.988281 -20.75 12.957031 -20.75 12.9375 -20.75 C 12.925781 -20.75 12.921875 -20.75 12.921875 -20.75 C 12.953125 -20.75 12.976562 -20.75 13 -20.75 C 13.019531 -20.75 13.03125 -20.75 13.03125 -20.75 Z M 13.09375 -20.75 C 13.09375 -20.75 13.082031 -20.75 13.0625 -20.75 C 13.039062 -20.75 13.050781 -20.75 13.09375 -20.75 Z M 18.609375 -21.078125 Z M 18.671875 -21.078125 C 18.710938 -21.035156 18.722656 -21.023438 18.703125 -21.046875 C 18.679688 -21.066406 18.671875 -21.078125 18.671875 -21.078125 Z M 18.921875 -21.09375 C 18.921875 -21.050781 18.921875 -21.039062 18.921875 -21.0625 C 18.921875 -21.082031 18.921875 -21.09375 18.921875 -21.09375 Z M 19.046875 -21.09375 C 19.085938 -21.0625 19.097656 -21.050781 19.078125 -21.0625 C 19.054688 -21.082031 19.046875 -21.09375 19.046875 -21.09375 Z M 19.1875 -21.109375 Z M 19.25 -21.109375 C 19.25 -21.066406 19.25 -21.054688 19.25 -21.078125 C 19.25 -21.097656 19.25 -21.109375 19.25 -21.109375 Z M 11.90625 -20.625 C 11.84375 -20.707031 11.8125 -20.71875 11.8125 -20.65625 C 11.820312 -20.59375 11.851562 -20.582031 11.90625 -20.625 Z M 11.328125 -20.53125 Z M 11.703125 -20.546875 C 11.703125 -20.546875 11.691406 -20.554688 11.671875 -20.578125 C 11.648438 -20.597656 11.660156 -20.585938 11.703125 -20.546875 Z M 10.6875 -20.5 C 10.6875 -20.457031 10.6875 -20.445312 10.6875 -20.46875 C 10.6875 -20.488281 10.6875 -20.5 10.6875 -20.5 Z M 10.8125 -20.5 Z M 11.0625 -20.515625 C 11.0625 -20.515625 11.050781 -20.515625 11.03125 -20.515625 C 11.007812 -20.515625 11 -20.515625 11 -20.515625 C 11 -20.515625 11.007812 -20.515625 11.03125 -20.515625 C 11.050781 -20.515625 11.0625 -20.515625 11.0625 -20.515625 Z M 9.921875 -20.390625 Z M 10.625 -20.421875 Z M 8.890625 -20.328125 Z M 9.140625 -20.34375 C 9.148438 -20.300781 9.148438 -20.289062 9.140625 -20.3125 C 9.140625 -20.332031 9.140625 -20.34375 9.140625 -20.34375 Z M 9.28125 -20.34375 C 9.332031 -20.3125 9.34375 -20.300781 9.3125 -20.3125 C 9.289062 -20.332031 9.28125 -20.34375 9.28125 -20.34375 Z M 9.40625 -20.359375 Z M 9.59375 -20.359375 Z M 10.109375 -20.390625 C 10.117188 -20.347656 10.117188 -20.335938 10.109375 -20.359375 C 10.109375 -20.378906 10.109375 -20.390625 10.109375 -20.390625 Z M 8.203125 -20.21875 C 8.285156 -20.175781 8.320312 -20.1875 8.3125 -20.25 C 8.3125 -20.320312 8.273438 -20.3125 8.203125 -20.21875 Z M 8.453125 -20.234375 C 8.492188 -20.234375 8.503906 -20.234375 8.484375 -20.234375 C 8.460938 -20.234375 8.453125 -20.234375 8.453125 -20.234375 Z M 8.84375 -20.265625 C 8.84375 -20.265625 8.832031 -20.257812 8.8125 -20.25 C 8.789062 -20.25 8.800781 -20.253906 8.84375 -20.265625 Z M 2.484375 -23.921875 C 2.523438 -23.921875 2.535156 -23.921875 2.515625 -23.921875 C 2.492188 -23.921875 2.484375 -23.921875 2.484375 -23.921875 Z M 25.421875 -23.703125 C 25.390625 -23.578125 25.378906 -23.566406 25.390625 -23.671875 C 25.410156 -23.785156 25.421875 -23.796875 25.421875 -23.703125 Z M 25.703125 -23.65625 C 25.785156 -23.664062 25.828125 -23.609375 25.828125 -23.484375 C 25.742188 -23.554688 25.703125 -23.613281 25.703125 -23.65625 Z M 24.609375 -23.46875 C 24.609375 -23.46875 24.597656 -23.46875 24.578125 -23.46875 C 24.554688 -23.46875 24.566406 -23.46875 24.609375 -23.46875 Z M 23 -23.3125 C 22.96875 -23.269531 22.9375 -23.28125 22.90625 -23.34375 C 22.882812 -23.40625 22.914062 -23.394531 23 -23.3125 Z M 24.859375 -23.421875 Z M 25.828125 -23.484375 C 25.828125 -23.484375 25.835938 -23.484375 25.859375 -23.484375 C 25.878906 -23.484375 25.867188 -23.484375 25.828125 -23.484375 Z M 23.09375 -23.265625 C 23.132812 -23.265625 23.144531 -23.265625 23.125 -23.265625 C 23.101562 -23.265625 23.09375 -23.265625 23.09375 -23.265625 Z M 23.921875 -23.3125 C 23.910156 -23.351562 23.945312 -23.375 24.03125 -23.375 C 24.039062 -23.332031 24.003906 -23.3125 23.921875 -23.3125 Z M 24.046875 -23.3125 C 24.078125 -23.394531 24.09375 -23.394531 24.09375 -23.3125 C 24.101562 -23.226562 24.085938 -23.226562 24.046875 -23.3125 Z M 25.078125 -23.3125 C 25.117188 -23.3125 25.128906 -23.3125 25.109375 -23.3125 C 25.085938 -23.3125 25.078125 -23.3125 25.078125 -23.3125 Z M 24.5 -23.15625 C 24.550781 -23.101562 24.5625 -23.085938 24.53125 -23.109375 C 24.507812 -23.140625 24.5 -23.15625 24.5 -23.15625 Z M 23.671875 -23.03125 C 23.722656 -23.03125 23.734375 -23.03125 23.703125 -23.03125 C 23.679688 -23.03125 23.671875 -23.03125 23.671875 -23.03125 Z M 25 -23.1875 C 25.132812 -23.1875 25.164062 -23.140625 25.09375 -23.046875 C 25.09375 -23.046875 25.066406 -23.046875 25.015625 -23.046875 C 25.015625 -23.085938 25.015625 -23.109375 25.015625 -23.109375 C 25.015625 -23.109375 25.007812 -23.132812 25 -23.1875 Z M 22.84375 -22.921875 C 22.925781 -22.921875 22.9375 -22.882812 22.875 -22.8125 C 22.8125 -22.75 22.800781 -22.785156 22.84375 -22.921875 Z M 23.671875 -22.90625 C 23.722656 -22.988281 23.75 -23 23.75 -22.9375 C 23.75 -22.875 23.722656 -22.863281 23.671875 -22.90625 Z M 24.1875 -22.9375 Z M 23.03125 -22.859375 C 22.988281 -22.773438 22.96875 -22.773438 22.96875 -22.859375 C 22.96875 -22.941406 22.988281 -22.941406 23.03125 -22.859375 Z M 23.03125 -22.859375 C 23.125 -22.953125 23.171875 -22.96875 23.171875 -22.90625 C 23.171875 -22.84375 23.125 -22.828125 23.03125 -22.859375 Z M 23.875 -22.90625 C 23.875 -22.90625 23.894531 -22.910156 23.9375 -22.921875 C 23.9375 -22.921875 23.9375 -22.910156 23.9375 -22.890625 C 23.9375 -22.867188 23.9375 -22.859375 23.9375 -22.859375 C 23.894531 -22.847656 23.875 -22.84375 23.875 -22.84375 C 23.875 -22.84375 23.875 -22.851562 23.875 -22.875 C 23.875 -22.894531 23.875 -22.90625 23.875 -22.90625 Z M 23.046875 -22.671875 C 23.085938 -22.765625 23.109375 -22.78125 23.109375 -22.71875 C 23.117188 -22.65625 23.097656 -22.640625 23.046875 -22.671875 Z M 23.484375 -22.765625 C 23.535156 -22.722656 23.570312 -22.703125 23.59375 -22.703125 C 23.613281 -22.703125 23.644531 -22.6875 23.6875 -22.65625 C 23.644531 -22.601562 23.601562 -22.597656 23.5625 -22.640625 C 23.519531 -22.679688 23.457031 -22.679688 23.375 -22.640625 C 23.445312 -22.722656 23.484375 -22.765625 23.484375 -22.765625 Z M 23.125 -22.6875 C 23.164062 -22.6875 23.1875 -22.6875 23.1875 -22.6875 C 23.1875 -22.6875 23.175781 -22.6875 23.15625 -22.6875 C 23.132812 -22.6875 23.125 -22.6875 23.125 -22.6875 Z M 22.34375 -22.640625 Z M 23.140625 -22.4375 C 23.210938 -22.476562 23.226562 -22.472656 23.1875 -22.421875 C 23.15625 -22.378906 23.140625 -22.382812 23.140625 -22.4375 Z M 22.75 -22.265625 C 22.789062 -22.222656 22.800781 -22.210938 22.78125 -22.234375 C 22.757812 -22.253906 22.75 -22.265625 22.75 -22.265625 Z M 23.328125 -22.296875 C 23.367188 -22.265625 23.378906 -22.253906 23.359375 -22.265625 C 23.335938 -22.285156 23.328125 -22.296875 23.328125 -22.296875 Z M 22.9375 -22.21875 C 22.9375 -22.21875 22.925781 -22.21875 22.90625 -22.21875 C 22.882812 -22.21875 22.894531 -22.21875 22.9375 -22.21875 Z M 23 -22.21875 C 23.039062 -22.21875 23.050781 -22.21875 23.03125 -22.21875 C 23.007812 -22.21875 23 -22.21875 23 -22.21875 Z M 22.1875 -22.171875 C 22.226562 -22.171875 22.253906 -22.148438 22.265625 -22.109375 C 22.335938 -22.117188 22.367188 -22.132812 22.359375 -22.15625 C 22.359375 -22.175781 22.382812 -22.1875 22.4375 -22.1875 C 22.445312 -22.144531 22.492188 -22.113281 22.578125 -22.09375 C 22.660156 -22.082031 22.703125 -22.097656 22.703125 -22.140625 C 22.785156 -22.054688 22.765625 -22.03125 22.640625 -22.0625 C 22.515625 -22.101562 22.453125 -22.082031 22.453125 -22 C 22.453125 -22 22.421875 -22.015625 22.359375 -22.046875 C 22.296875 -22.085938 22.265625 -22.066406 22.265625 -21.984375 C 22.222656 -21.984375 22.195312 -22.046875 22.1875 -22.171875 Z M 22.890625 -22.09375 C 22.890625 -22.050781 22.890625 -22.039062 22.890625 -22.0625 C 22.890625 -22.082031 22.890625 -22.09375 22.890625 -22.09375 Z M 19.140625 -21.8125 C 19.140625 -21.769531 19.140625 -21.75 19.140625 -21.75 C 19.140625 -21.789062 19.140625 -21.8125 19.140625 -21.8125 Z M 19.765625 -21.84375 C 19.859375 -21.851562 19.894531 -21.832031 19.875 -21.78125 C 19.863281 -21.738281 19.832031 -21.71875 19.78125 -21.71875 C 19.738281 -21.71875 19.722656 -21.738281 19.734375 -21.78125 C 19.753906 -21.820312 19.765625 -21.84375 19.765625 -21.84375 Z M 19.515625 -21.765625 Z M 19.578125 -21.765625 Z M 20.09375 -21.796875 C 20.101562 -21.753906 20.09375 -21.742188 20.0625 -21.765625 C 20.039062 -21.785156 20.050781 -21.796875 20.09375 -21.796875 Z M 20.09375 -21.796875 C 20.09375 -21.796875 20.101562 -21.796875 20.125 -21.796875 C 20.144531 -21.804688 20.15625 -21.8125 20.15625 -21.8125 C 20.15625 -21.8125 20.132812 -21.804688 20.09375 -21.796875 Z M 20.859375 -21.84375 C 20.867188 -21.757812 20.867188 -21.757812 20.859375 -21.84375 C 20.859375 -21.925781 20.859375 -21.925781 20.859375 -21.84375 Z M 19.140625 -21.75 Z M 19.21875 -21.6875 C 19.25 -21.769531 19.265625 -21.78125 19.265625 -21.71875 C 19.273438 -21.65625 19.257812 -21.644531 19.21875 -21.6875 Z M 19.515625 -21.765625 C 19.515625 -21.765625 19.535156 -21.765625 19.578125 -21.765625 C 19.585938 -21.722656 19.582031 -21.703125 19.5625 -21.703125 C 19.539062 -21.703125 19.523438 -21.722656 19.515625 -21.765625 Z M 20.15625 -21.8125 Z M 21.515625 -21.8125 C 21.503906 -21.851562 21.507812 -21.875 21.53125 -21.875 C 21.550781 -21.882812 21.5625 -21.890625 21.5625 -21.890625 C 21.570312 -21.847656 21.566406 -21.820312 21.546875 -21.8125 C 21.523438 -21.8125 21.515625 -21.8125 21.515625 -21.8125 Z M 20.5625 -21.765625 C 20.601562 -21.722656 20.613281 -21.710938 20.59375 -21.734375 C 20.570312 -21.753906 20.5625 -21.765625 20.5625 -21.765625 Z M 22.09375 -21.859375 C 22.09375 -21.816406 22.09375 -21.804688 22.09375 -21.828125 C 22.09375 -21.847656 22.09375 -21.859375 22.09375 -21.859375 Z M 22.28125 -21.59375 C 22.195312 -21.59375 22.101562 -21.585938 22 -21.578125 C 21.894531 -21.578125 21.796875 -21.570312 21.703125 -21.5625 C 21.742188 -21.5625 21.847656 -21.597656 22.015625 -21.671875 C 22.191406 -21.753906 22.28125 -21.726562 22.28125 -21.59375 Z M 20.953125 -21.328125 C 20.921875 -21.203125 20.910156 -21.191406 20.921875 -21.296875 C 20.941406 -21.398438 20.953125 -21.410156 20.953125 -21.328125 Z M 20.953125 -21.328125 "/></g></g></g></svg>